<?xml version="1.0" encoding="utf-8"?>
<!-- Generator: Adobe Illustrator 26.5.0, SVG Export Plug-In . SVG Version: 6.00 Build 0)  -->
<svg version="1.1" id="Layer_1" xmlns="http://www.w3.org/2000/svg" xmlns:xlink="http://www.w3.org/1999/xlink" x="0px" y="0px"
	 viewBox="0 0 512 512" style="enable-background:new 0 0 512 512;" xml:space="preserve">
<style type="text/css">
	.st0{fill:#F2F2F2;}
	.st1{fill:#4CADE9;}
</style>
<g>
	<g>
		<path class="st0" d="M371.4,374.2c-4.2,0-7.5,3.4-7.5,7.5v84.5c0,6.8-5.5,12.4-12.4,12.4h-300c-6.8,0-12.4-5.5-12.4-12.4V45.5
			c0-6.8,5.5-12.4,12.4-12.4h227.3v62c0,8.6,7,15.7,15.7,15.7h69.4V162c0,4.2,3.4,7.5,7.5,7.5s7.5-3.4,7.5-7.5v-58.7
			c0-1.6-0.9-4-2.4-5.5c-0.8-0.7-84.4-77.1-85.1-77.8c0,0,0,0,0,0l0,0c-1.3-1.2-3.6-2-5.1-2H51.5c-15.1,0-27.4,12.3-27.4,27.4v420.7
			c0,15.1,12.3,27.4,27.4,27.4h300c15.1,0,27.4-12.3,27.4-27.4v-84.5C378.9,377.5,375.5,374.2,371.4,374.2L371.4,374.2z M294.5,95.8
			c-0.3,0-0.6-0.3-0.6-0.6V42.7c7.1,6.5,53.6,49,58.1,53.1H294.5z"/>
		<path class="st0" d="M69,88.6h132c4.2,0,7.5-3.4,7.5-7.5s-3.4-7.5-7.5-7.5H69c-4.2,0-7.5,3.4-7.5,7.5S64.8,88.6,69,88.6z"/>
		<path class="st0" d="M336.4,151c0-4.2-3.4-7.5-7.5-7.5H69c-4.2,0-7.5,3.4-7.5,7.5c0,4.2,3.4,7.5,7.5,7.5h259.8
			C333,158.5,336.4,155.2,336.4,151z"/>
		<path class="st0" d="M201,213.4H69c-4.2,0-7.5,3.4-7.5,7.5c0,4.2,3.4,7.5,7.5,7.5h132c4.2,0,7.5-3.4,7.5-7.5
			C208.5,216.7,205.1,213.4,201,213.4z"/>
		<path class="st0" d="M69,298.3h132c4.2,0,7.5-3.4,7.5-7.5s-3.4-7.5-7.5-7.5H69c-4.2,0-7.5,3.4-7.5,7.5S64.8,298.3,69,298.3z"/>
		<path class="st0" d="M230.4,353.2H69c-4.2,0-7.5,3.4-7.5,7.5c0,4.2,3.4,7.5,7.5,7.5h161.5c4.2,0,7.5-3.4,7.5-7.5
			C238,356.6,234.6,353.2,230.4,353.2z"/>
		<path class="st0" d="M61.5,430.6c0,4.2,3.4,7.5,7.5,7.5h259.8c4.2,0,7.5-3.4,7.5-7.5c0-4.2-3.4-7.5-7.5-7.5H69
			C64.8,423.1,61.5,426.5,61.5,430.6L61.5,430.6z"/>
		<path class="st0" d="M300.2,199.8c-33.6,7.2-56.3,36.2-57.9,67.8c-0.2,4.2,3,7.7,7.1,7.9c0.1,0,0.3,0,0.4,0c4,0,7.3-3.1,7.5-7.1
			c1.3-25.4,19.6-48.3,46-53.9c4.1-0.9,6.7-4.9,5.8-8.9S304.2,198.9,300.2,199.8L300.2,199.8z"/>
		<path class="st1" d="M493.3,367l-14.7-11.7c-3.3-2.6-8-2.1-10.6,1.2c-2.6,3.3-2.1,8,1.2,10.6l14.7,11.7c8,6.4,9.4,18.1,3,26.1
			c-6.4,8.1-18.1,9.3-26.1,3L409.5,367l23.1-29.1l11.3,9c3.2,2.6,8,2.1,10.6-1.2c2.6-3.3,2.1-8-1.2-10.6l-17.2-13.7
			c-3.3-2.6-8-2-10.6,1.2l-0.9,1.1l-13.8-11c18.6-43,6.4-92.6-30.6-122c-24.5-19.4-56.2-26.6-86.3-20c-84.6,18-111.1,127.5-42.6,182
			c38,30.2,92.5,29.6,129.7-0.6l12.9,10.2l-0.9,1.1c-2.6,3.3-2.1,8,1.2,10.6l57.1,45.5c14.5,11.5,35.6,9.2,47.2-5.4
			C510.2,399.7,507.8,378.5,493.3,367L493.3,367z M260.8,341c-58.7-46.7-35.6-140.2,36.4-155.5c26.5-5.8,53.5,1,73.8,17.2
			c36.9,29.3,44.4,81.7,17.1,120.1l-2.7,3.7C345.8,369.3,294.8,368,260.8,341L260.8,341z M400.4,331.5
			C400.4,331.5,400.4,331.5,400.4,331.5L400.4,331.5c0-0.1,0.1-0.1,0.1-0.1c1.2-1.6,2.3-3.3,3.3-5l11.5,9.2l-11.9,15l-11.2-8.9
			C396.2,337.3,398.6,334,400.4,331.5L400.4,331.5z"/>
	</g>
</g>
</svg>
