<?xml version="1.0" encoding="utf-8"?>
<!-- Generator: Adobe Illustrator 26.5.0, SVG Export Plug-In . SVG Version: 6.00 Build 0)  -->
<svg version="1.1" id="Layer_1" xmlns="http://www.w3.org/2000/svg" xmlns:xlink="http://www.w3.org/1999/xlink" x="0px" y="0px"
	 viewBox="0 0 512 512" style="enable-background:new 0 0 512 512;" xml:space="preserve">
<style type="text/css">
	.st0{fill:#F2F2F2;}
	.st1{fill:#4CADE9;}
</style>
<g>
	<g>
		<path class="st0" d="M255.7,1.3c-141.2,0-256,114.8-256,256c14.1,339.6,498,339.5,512,0C511.7,116.1,396.9,1.3,255.7,1.3z
			 M255.7,491.3c-129,0-234-105-234-234c12.9-310.4,455.2-310.3,468,0C489.7,386.3,384.7,491.3,255.7,491.3z"/>
		<path class="st0" d="M255.7,66.6C150.6,66.6,65,152.1,65,257.3c10.5,252.9,370.9,252.9,381.3,0C446.4,152.1,360.8,66.6,255.7,66.6
			z M255.7,425.9c-93,0-168.7-75.7-168.7-168.7c9.3-223.8,328.1-223.7,337.3,0C424.4,350.3,348.7,425.9,255.7,425.9z"/>
	</g>
	<g>
		<path class="st1" d="M337.4,268.3h-81.7c-6.1,0-11-4.9-11-11V142.9c0.6-14.6,21.4-14.6,22,0v103.3h70.7c6.1,0,11,4.9,11,11
			C348.4,263.3,343.4,268.3,337.4,268.3z"/>
	</g>
</g>
</svg>
