<?xml version="1.0" encoding="utf-8"?>
<!-- Generator: Adobe Illustrator 26.5.0, SVG Export Plug-In . SVG Version: 6.00 Build 0)  -->
<svg version="1.1" xmlns="http://www.w3.org/2000/svg" xmlns:xlink="http://www.w3.org/1999/xlink" x="0px" y="0px"
	 viewBox="0 0 512 512" style="enable-background:new 0 0 512 512;" xml:space="preserve">
<style type="text/css">
	.st0{fill:#4CADE9;}
	.st1{fill:#F2F2F2;}
</style>
<g id="Layer_1">
	<g>
		<path class="st0" d="M480.4,26.4H384c-4.1,0-7.5,3.4-7.5,7.5s3.4,7.5,7.5,7.5h96.5c8.9,0,16.2,7.3,16.2,16.2v285h-482v-285
			c0-8.9,7.3-16.2,16.2-16.2H349c4.1,0,7.5-3.4,7.5-7.5s-3.4-7.5-7.5-7.5H30.9c-17.2,0-31.2,14-31.2,31.2v308.8
			c0,17.2,14,31.2,31.2,31.2h71.8c4.1,0,7.5-3.4,7.5-7.5s-3.4-7.5-7.5-7.5H30.9c-8.9,0-16.2-7.3-16.2-16.2v-8.8h482v8.8
			c0,8.9-7.3,16.2-16.2,16.2H137.3c-4.1,0-7.5,3.4-7.5,7.5s3.4,7.5,7.5,7.5h47.2l-7.4,42.8h-13.7c-12.4,0-22.5,10.1-22.5,22.5
			s10.1,22.5,22.5,22.5h184.4c12.4,0,22.5-10.1,22.5-22.5s-10.1-22.5-22.5-22.5h-13.7l-7.4-42.8h153.7c17.2,0,31.2-14,31.2-31.2
			V57.6C511.7,40.4,497.7,26.4,480.4,26.4L480.4,26.4z M319,440.4h-20.4c-4.1,0-7.5,3.4-7.5,7.5s3.4,7.5,7.5,7.5h49.3
			c4.1,0,7.5,3.4,7.5,7.5s-3.4,7.5-7.5,7.5H163.5c-4.1,0-7.5-3.4-7.5-7.5s3.4-7.5,7.5-7.5h100.1c4.1,0,7.5-3.4,7.5-7.5
			s-3.4-7.5-7.5-7.5h-71.2l7.4-42.8h111.8L319,440.4z"/>
	</g>
</g>
<g id="Layer_2">
	<g>
		<g>
			<path class="st1" d="M113,56.6c-15.7,0-28.5,12.8-28.5,28.5v14.2c0,15.7,12.8,28.5,28.5,28.5s28.5-12.8,28.5-28.5V85
				C141.5,69.3,128.7,56.6,113,56.6z M127.2,99.3c0,7.9-6.4,14.2-14.2,14.2s-14.2-6.4-14.2-14.2V85c0-7.9,6.4-14.2,14.2-14.2
				c7.9,0,14.2,6.4,14.2,14.2V99.3z"/>
		</g>
	</g>
	<g>
		<g>
			<path class="st1" d="M255.4,56.6c-15.7,0-28.5,12.8-28.5,28.5v14.2c0,15.7,12.8,28.5,28.5,28.5c15.7,0,28.5-12.8,28.5-28.5V85
				C283.9,69.3,271.1,56.6,255.4,56.6z M269.7,99.3c0,7.9-6.4,14.2-14.2,14.2s-14.2-6.4-14.2-14.2V85c0-7.9,6.4-14.2,14.2-14.2
				c7.9,0,14.2,6.4,14.2,14.2V99.3z"/>
		</g>
	</g>
	<g>
		<g>
			<path class="st1" d="M255.4,156.3c-15.7,0-28.5,12.8-28.5,28.5V199c0,15.7,12.8,28.5,28.5,28.5s28.5-12.8,28.5-28.5v-14.2
				C283.9,169,271.1,156.3,255.4,156.3z M269.7,199c0,7.9-6.4,14.2-14.2,14.2s-14.2-6.4-14.2-14.2v-14.2c0-7.9,6.4-14.2,14.2-14.2
				s14.2,6.4,14.2,14.2V199z"/>
		</g>
	</g>
	<g>
		<g>
			<path class="st1" d="M390.7,156.3c-15.7,0-28.5,12.8-28.5,28.5V199c0,15.7,12.8,28.5,28.5,28.5c15.7,0,28.5-12.8,28.5-28.5v-14.2
				C419.2,169,406.4,156.3,390.7,156.3z M405,199c0,7.9-6.4,14.2-14.2,14.2s-14.2-6.4-14.2-14.2v-14.2c0-7.9,6.4-14.2,14.2-14.2
				s14.2,6.4,14.2,14.2V199z"/>
		</g>
	</g>
	<g>
		<g>
			<path class="st1" d="M184.2,56.6h-14.2c-3.9,0-7.1,3.2-7.1,7.1s3.2,7.1,7.1,7.1h7.1v49.9c0,3.9,3.2,7.1,7.1,7.1s7.1-3.2,7.1-7.1
				v-57C191.3,59.7,188.1,56.6,184.2,56.6z"/>
		</g>
	</g>
	<g>
		<g>
			<path class="st1" d="M198.4,113.5h-28.5c-3.9,0-7.1,3.2-7.1,7.1s3.2,7.1,7.1,7.1h28.5c3.9,0,7.1-3.2,7.1-7.1
				S202.4,113.5,198.4,113.5z"/>
		</g>
	</g>
	<g>
		<g>
			<path class="st1" d="M390.7,56.6h-14.2c-3.9,0-7.1,3.2-7.1,7.1s3.2,7.1,7.1,7.1h7.1v49.9c0,3.9,3.2,7.1,7.1,7.1
				c3.9,0,7.1-3.2,7.1-7.1v-57C397.9,59.7,394.7,56.6,390.7,56.6z"/>
		</g>
	</g>
	<g>
		<g>
			<path class="st1" d="M405,113.5h-28.5c-3.9,0-7.1,3.2-7.1,7.1s3.2,7.1,7.1,7.1H405c3.9,0,7.1-3.2,7.1-7.1S408.9,113.5,405,113.5z
				"/>
		</g>
	</g>
	<g>
		<g>
			<path class="st1" d="M113,156.3H98.7c-3.9,0-7.1,3.2-7.1,7.1s3.2,7.1,7.1,7.1h7.1v49.9c0,3.9,3.2,7.1,7.1,7.1
				c3.9,0,7.1-3.2,7.1-7.1v-57C120.1,159.5,116.9,156.3,113,156.3z"/>
		</g>
	</g>
	<g>
		<g>
			<path class="st1" d="M127.2,213.2H98.7c-3.9,0-7.1,3.2-7.1,7.1s3.2,7.1,7.1,7.1h28.5c3.9,0,7.1-3.2,7.1-7.1
				C134.3,216.4,131.1,213.2,127.2,213.2z"/>
		</g>
	</g>
	<g>
		<g>
			<path class="st1" d="M184.2,156.3h-14.2c-3.9,0-7.1,3.2-7.1,7.1s3.2,7.1,7.1,7.1h7.1v49.9c0,3.9,3.2,7.1,7.1,7.1s7.1-3.2,7.1-7.1
				v-57C191.3,159.5,188.1,156.3,184.2,156.3z"/>
		</g>
	</g>
	<g>
		<g>
			<path class="st1" d="M198.4,213.2h-28.5c-3.9,0-7.1,3.2-7.1,7.1s3.2,7.1,7.1,7.1h28.5c3.9,0,7.1-3.2,7.1-7.1
				C205.6,216.4,202.4,213.2,198.4,213.2z"/>
		</g>
	</g>
	<g>
		<g>
			<path class="st1" d="M326.6,156.3h-14.2c-3.9,0-7.1,3.2-7.1,7.1s3.2,7.1,7.1,7.1h7.1v49.9c0,3.9,3.2,7.1,7.1,7.1
				c3.9,0,7.1-3.2,7.1-7.1v-57C333.8,159.5,330.6,156.3,326.6,156.3z"/>
		</g>
	</g>
	<g>
		<g>
			<path class="st1" d="M340.9,213.2h-28.5c-3.9,0-7.1,3.2-7.1,7.1s3.2,7.1,7.1,7.1h28.5c3.9,0,7.1-3.2,7.1-7.1
				C348,216.4,344.8,213.2,340.9,213.2z"/>
		</g>
	</g>
	<g>
		<g>
			<path class="st1" d="M326.6,56.6h-14.2c-3.9,0-7.1,3.2-7.1,7.1s3.2,7.1,7.1,7.1h7.1v49.9c0,3.9,3.2,7.1,7.1,7.1
				c3.9,0,7.1-3.2,7.1-7.1v-57C333.8,59.7,330.6,56.6,326.6,56.6z"/>
		</g>
	</g>
	<g>
		<g>
			<path class="st1" d="M340.9,113.5h-28.5c-3.9,0-7.1,3.2-7.1,7.1s3.2,7.1,7.1,7.1h28.5c3.9,0,7.1-3.2,7.1-7.1
				S344.8,113.5,340.9,113.5z"/>
		</g>
	</g>
	<g>
		<g>
			<path class="st1" d="M113,256c-15.7,0-28.5,12.8-28.5,28.5v14.2c0,15.7,12.8,28.5,28.5,28.5s28.5-12.8,28.5-28.5v-14.2
				C141.5,268.8,128.7,256,113,256z M127.2,298.7c0,7.9-6.4,14.2-14.2,14.2s-14.2-6.4-14.2-14.2v-14.2c0-7.9,6.4-14.2,14.2-14.2
				c7.9,0,14.2,6.4,14.2,14.2V298.7z"/>
		</g>
	</g>
	<g>
		<g>
			<path class="st1" d="M255.4,256c-15.7,0-28.5,12.8-28.5,28.5v14.2c0,15.7,12.8,28.5,28.5,28.5c15.7,0,28.5-12.8,28.5-28.5v-14.2
				C283.9,268.8,271.1,256,255.4,256z M269.7,298.7c0,7.9-6.4,14.2-14.2,14.2s-14.2-6.4-14.2-14.2v-14.2c0-7.9,6.4-14.2,14.2-14.2
				s14.2,6.4,14.2,14.2V298.7z"/>
		</g>
	</g>
	<g>
		<g>
			<path class="st1" d="M184.2,256h-14.2c-3.9,0-7.1,3.2-7.1,7.1s3.2,7.1,7.1,7.1h7.1v49.9c0,3.9,3.2,7.1,7.1,7.1s7.1-3.2,7.1-7.1
				v-57C191.3,259.2,188.1,256,184.2,256z"/>
		</g>
	</g>
	<g>
		<g>
			<path class="st1" d="M198.4,313h-28.5c-3.9,0-7.1,3.2-7.1,7.1s3.2,7.1,7.1,7.1h28.5c3.9,0,7.1-3.2,7.1-7.1S202.4,313,198.4,313z"
				/>
		</g>
	</g>
	<g>
		<g>
			<path class="st1" d="M390.7,256h-14.2c-3.9,0-7.1,3.2-7.1,7.1s3.2,7.1,7.1,7.1h7.1v49.9c0,3.9,3.2,7.1,7.1,7.1
				c3.9,0,7.1-3.2,7.1-7.1v-57C397.9,259.2,394.7,256,390.7,256z"/>
		</g>
	</g>
	<g>
		<g>
			<path class="st1" d="M405,313h-28.5c-3.9,0-7.1,3.2-7.1,7.1s3.2,7.1,7.1,7.1H405c3.9,0,7.1-3.2,7.1-7.1S408.9,313,405,313z"/>
		</g>
	</g>
	<g>
		<g>
			<path class="st1" d="M326.6,256h-14.2c-3.9,0-7.1,3.2-7.1,7.1s3.2,7.1,7.1,7.1h7.1v49.9c0,3.9,3.2,7.1,7.1,7.1
				c3.9,0,7.1-3.2,7.1-7.1v-57C333.8,259.2,330.6,256,326.6,256z"/>
		</g>
	</g>
	<g>
		<g>
			<path class="st1" d="M340.9,313h-28.5c-3.9,0-7.1,3.2-7.1,7.1s3.2,7.1,7.1,7.1h28.5c3.9,0,7.1-3.2,7.1-7.1S344.8,313,340.9,313z"
				/>
		</g>
	</g>
</g>
</svg>
