<?xml version="1.0" encoding="utf-8"?>
<!-- Generator: Adobe Illustrator 26.5.0, SVG Export Plug-In . SVG Version: 6.00 Build 0)  -->
<svg version="1.1" id="Layer_1" xmlns="http://www.w3.org/2000/svg" xmlns:xlink="http://www.w3.org/1999/xlink" x="0px" y="0px"
	 viewBox="0 0 512 512" style="enable-background:new 0 0 512 512;" xml:space="preserve">
<style type="text/css">
	.st0{fill:#F2F2F2;}
	.st1{fill:#4CADE9;}
</style>
<g id="Layer_1_00000147215962806088652260000004243909337205239462_">
	<path class="st0" d="M289.8,50H137.3c-15.7,0-28.5,12.8-28.5,28.5v349.6c0,15.7,12.8,28.5,28.5,28.5h243.9
		c15.7,0,28.5-12.8,28.5-28.5v-76.9l0-146.4v-36c0-7.6-2.9-14.7-8.2-20l-89.2-90.2c-0.8-0.8-1.7-1.6-2.5-2.3 M309.8,84.4l64.8,65.6
		h-56.3c-4.7,0-8.5-3.8-8.5-8.5V84.4z M389.7,428.2c0,4.7-3.8,8.5-8.5,8.5H137.3c-4.7,0-8.5-3.8-8.5-8.5V78.6c0-4.7,3.8-8.5,8.5-8.5
		h152.5v71.4c0,15.7,12.8,28.5,28.5,28.5h71.4V428.2z"/>
	<line class="st0" x1="409.7" y1="331.2" x2="409.7" y2="224.9"/>
	<path class="st0" d="M174,224.7h131.6c5.5,0,10-4.5,10-10s-4.5-10-10-10H174c-5.5,0-10,4.5-10,10S168.5,224.7,174,224.7z"/>
	<path class="st0" d="M174,277.7h109.7c5.5,0,10-4.5,10-10s-4.5-10-10-10H174c-5.5,0-10,4.5-10,10S168.5,277.7,174,277.7z"/>
	<circle class="st0" cx="333.5" cy="267.7" r="10"/>
	<path class="st0" d="M333.7,311.3H174c-5.5,0-10,4.5-10,10s4.5,10,10,10h159.7c5.5,0,10-4.5,10-10S339.3,311.3,333.7,311.3z"/>
	<path class="st0" d="M333.7,364.7H174c-5.5,0-10,4.5-10,10s4.5,10,10,10h159.7c5.5,0,10-4.5,10-10S339.3,364.7,333.7,364.7z"/>
</g>
<g id="Layer_2_00000039091705963029484940000017224956244362722449_">
	<path class="st1" d="M286.9,50.1H137.3c-15.7,0-28.5,12.8-28.5,28.5v349.6c0,15.7,12.8,28.5,28.5,28.5h243.9
		c15.7,0,28.5-12.8,28.5-28.5v-76.9v-20V168.8c0-7.5-2.9-14.7-8.2-20l-89.2-90.2l0,0c-1.4-1.4-3.2-2.5-5.2-3.1L292.5,51
		C290.7,50.4,288.8,50.1,286.9,50.1z M309.8,84.4l64.8,65.6h-56.3c-4.7,0-8.5-3.8-8.5-8.5V84.4z M389.7,224.9v203.3
		c0,4.7-3.8,8.5-8.5,8.5H137.3c-4.7,0-8.5-3.8-8.5-8.5V78.6c0-4.7,3.8-8.5,8.5-8.5h152.5v71.4c0,15.7,12.8,28.5,28.5,28.5h71.4v34.9
		"/>
</g>
</svg>
