<?xml version="1.0" encoding="utf-8"?>
<!-- Generator: Adobe Illustrator 26.5.0, SVG Export Plug-In . SVG Version: 6.00 Build 0)  -->
<svg version="1.1" xmlns="http://www.w3.org/2000/svg" xmlns:xlink="http://www.w3.org/1999/xlink" x="0px" y="0px"
	 viewBox="0 0 512 512" style="enable-background:new 0 0 512 512;" xml:space="preserve">
<style type="text/css">
	.st0{fill:#F2F2F2;}
	.st1{fill:#4CADE9;}
</style>
<g id="Layer_1">
	<g id="Page-1">
		<g id="_x30_02---Pen-and-Paper">
			<path id="Shape" class="st0" d="M61.1,491.8h306.7c13,0,23.6-10.6,23.6-23.6V342.4c0-4.3-3.5-7.9-7.9-7.9s-7.9,3.5-7.9,7.9v125.8
				c0,4.3-3.5,7.9-7.9,7.9H61.1c-4.3,0-7.9-3.5-7.9-7.9V145.8h78.6c17.4,0,31.5-14.1,31.5-31.5V35.7h204.5c4.3,0,7.9,3.5,7.9,7.9
				v125.8c0,4.3,3.5,7.9,7.9,7.9s7.9-3.5,7.9-7.9V43.6c0-13-10.6-23.6-23.6-23.6H162c-6.3,0-12.3,2.5-16.7,6.9L44.5,127.8
				c-4.4,4.4-6.9,10.4-6.9,16.7v323.8C37.5,481.2,48.1,491.8,61.1,491.8z M147.6,46.8v67.5c0,8.7-7,15.7-15.7,15.7H64.4L147.6,46.8z
				"/>
			<path id="Shape_00000072246377100083041940000007648436831633144457_" class="st0" d="M84.7,185.1c0,4.3,3.5,7.9,7.9,7.9h243.8
				c4.3,0,7.9-3.5,7.9-7.9c0-4.3-3.5-7.9-7.9-7.9H92.6C88.2,177.2,84.7,180.8,84.7,185.1z"/>
			<path id="Shape_00000070096398642196741600000004826306270600157837_" class="st0" d="M92.6,232.3h186.9c4.3,0,7.9-3.5,7.9-7.9
				c0-4.3-3.5-7.9-7.9-7.9H92.6c-4.3,0-7.9,3.5-7.9,7.9C84.7,228.8,88.2,232.3,92.6,232.3z"/>
			<path id="Shape_00000044178348715295742930000002915673415105294979_" class="st0" d="M92.6,271.6h130c4.3,0,7.9-3.5,7.9-7.9
				c0-4.3-3.5-7.9-7.9-7.9h-130c-4.3,0-7.9,3.5-7.9,7.9C84.7,268.1,88.2,271.6,92.6,271.6z"/>
			<path id="Shape_00000021112689281358306150000009387825046219460512_" class="st0" d="M92.6,342.4h59.1c4.3,0,7.9-3.5,7.9-7.9
				c0-4.3-3.5-7.9-7.9-7.9H92.6c-4.3,0-7.9,3.5-7.9,7.9C84.7,338.9,88.2,342.4,92.6,342.4z"/>
			<path id="Shape_00000058565866323462746370000007203584756402928283_" class="st0" d="M92.6,381.7h32.3c4.3,0,7.9-3.5,7.9-7.9
				s-3.5-7.9-7.9-7.9H92.6c-4.3,0-7.9,3.5-7.9,7.9S88.2,381.7,92.6,381.7z"/>
			<path id="Shape_00000052825273276827602840000006842175068353581189_" class="st0" d="M364.5,213.4l-154,106.5
				c-1.6,1.1-3,2.5-4,4.1l-49.4,72.4c-1.8,2.6-2.7,5.7-2.8,8.9H92.6c-4.3,0-7.9,3.5-7.9,7.9c0,4.3,3.5,7.9,7.9,7.9H170
				c1.3,0,2.5-0.2,3.8-0.5l85.1-20.7c1.9-0.5,3.7-1.3,5.3-2.4l154-106.5l32.3-22.4l45.3-31.3c14.3-9.9,17.8-29.5,8-43.8l-17.9-25.9
				c-9.9-14.3-29.5-17.9-43.8-8l-45.3,31.3L364.5,213.4z M399.3,208.5l35.8,51.7l-19.4,13.4l-35.8-51.7L399.3,208.5z M402.8,282.6
				L260.5,381l-35.8-51.7L367,230.8L402.8,282.6z M213.8,341.1l31.7,45.8l-32.8,7.9L194.8,369L213.8,341.1z M185.3,382.9l11.1,16
				l-26.3,6.4L185.3,382.9z M451.1,172.7c3.4-2.4,7.7-3.3,11.8-2.5c4.1,0.7,7.7,3.1,10.1,6.5l17.9,25.9c4.9,7.1,3.1,16.9-4,21.9
				L448,251.3l-35.8-51.7L451.1,172.7z"/>
			<path id="Shape_00000106830005824457733190000008661477864689862809_" class="st0" d="M336.4,405.3v31.5h-31.5
				c-4.3,0-7.9,3.5-7.9,7.9s3.5,7.9,7.9,7.9h39.3c4.3,0,7.9-3.5,7.9-7.9v-39.3c0-4.3-3.5-7.9-7.9-7.9
				C339.9,397.4,336.4,401,336.4,405.3z"/>
			<path id="Shape_00000032606780975856012940000007628827837723528361_" class="st0" d="M344.2,59.3h-62.9c-4.3,0-7.9,3.5-7.9,7.9
				s3.5,7.9,7.9,7.9h62.9c4.3,0,7.9-3.5,7.9-7.9S348.6,59.3,344.2,59.3z"/>
			<path id="Shape_00000180368722364744328610000010322728795211915953_" class="st0" d="M344.2,90.7h-39.3c-4.3,0-7.9,3.5-7.9,7.9
				s3.5,7.9,7.9,7.9h39.3c4.3,0,7.9-3.5,7.9-7.9S348.6,90.7,344.2,90.7z"/>
		</g>
	</g>
</g>
<g id="Layer_2">
	<g id="Page-1_00000155126583286630374980000006657615816013780634_">
		<g id="_x30_02---Pen-and-Paper_00000078014320312670721140000010500278024767858843_">
			<path class="st1" d="M165.3,384.6l-8.5,12.5l-3.9,6.8c-5.2,9.1,2.6,20.1,13,18.2l9.6-1.8l83.5-20.3c1.9-0.5,3.7-1.3,5.3-2.4
				l154-106.5l32.3-22.4l45.3-31.3c14.3-9.9,17.8-29.5,8-43.8l-17.9-25.9c-9.9-14.3-29.5-17.9-43.8-8l-45.3,31.3l-32.3,22.3
				l-154,106.5c-1.6,1.1-3,2.5-4,4.1l-49.4,72.4c-1.8,2.6-2.7,5.7-2.8,8.9 M158.7,417.2 M153.9,414.8 M170.1,405.5l15.3-22.4
				l11.1,16L170.1,405.5z M212.8,395.1l-17.9-25.9l19-27.9l31.7,45.8L212.8,395.1z M260.5,381.2l-35.8-51.7L367.1,231l35.7,51.7
				L260.5,381.2z M415.8,273.8L380,222.1l19.4-13.4l35.8,51.7L415.8,273.8z M486.9,224.6l-38.8,26.8l-35.8-51.7l38.8-26.8
				c3.4-2.4,7.7-3.3,11.8-2.5s7.7,3.1,10.1,6.5l17.9,25.9C495.8,209.9,494,219.7,486.9,224.6z"/>
		</g>
	</g>
	<path class="st1" d="M187,418.5"/>
</g>
<g id="Layer_3">
</g>
</svg>
