<?xml version="1.0" encoding="utf-8"?>
<!-- Generator: Adobe Illustrator 26.5.0, SVG Export Plug-In . SVG Version: 6.00 Build 0)  -->
<svg version="1.1" id="Layer_1" xmlns="http://www.w3.org/2000/svg" xmlns:xlink="http://www.w3.org/1999/xlink" x="0px" y="0px"
	 viewBox="0 0 512 512" style="enable-background:new 0 0 512 512;" xml:space="preserve">
<style type="text/css">
	.st0{fill:#F2F2F2;}
	.st1{fill:#4CADE9;}
</style>
<g>
	<g>
		<path class="st0" d="M387.1,463.9c-2.8-4.8-8.9-6.4-13.6-3.6l-0.4,0.2c-4.8,2.8-6.4,8.9-3.6,13.7c1.8,3.2,5.2,5,8.6,5
			c1.7,0,3.4-0.4,5-1.4l0.4-0.2C388.2,474.8,389.9,468.7,387.1,463.9z"/>
	</g>
</g>
<g>
	<g>
		<path class="st1" d="M476.8,128.3c-34-59.2-89-101.5-154.8-119.1C256.2-8.5,187.6,0.5,128.6,34.7C69.6,68.8,27.5,124,9.8,189.9
			S1.3,324.8,35.3,384C65.8,437,114.4,477.4,172,497.5c27.3,9.6,55.8,14.3,84.2,14.3c30.9,0,61.8-5.6,91-16.9
			c5.1-2,7.7-7.8,5.7-12.9s-7.7-7.7-12.9-5.7c-77.7,30-161.8,16.3-224.6-31l8.9-46.7l4.3-1.4c16.2-5.3,25.2-22.9,19.9-39.2l-3.2-9.7
			c-0.7-2.3-0.7-4.6,0-6.9c2.8-8.5,1.8-17.7-2.7-25.4c-4.5-7.7-12.1-13.1-20.8-14.8l-22.5-4.4L56,263.7c-2.6-2-6-2.6-9.1-1.5
			l-25.4,8.3c-0.5-9.1-0.5-18.2,0-27.3c1,0.9,1.7,1.6,2.1,2c0.5,0.8,1.1,1.6,1.8,2.3c2.1,1.9,4,2.8,7.9,2.8c3.6,0,9-0.7,17.8-2
			c8.4-1.2,16.8-2.6,16.8-2.7c3.3-0.6,6.2-2.8,7.5-5.9c1.3-3.1,1-6.7-0.9-9.5l-12.2-18l17.5-12.5c1.2-0.8,2.1-1.9,2.8-3.2l27.1-47.5
			l10.9-11.7c11.2-12,14.4-29.6,8.1-44.8c-3.7-9-10.1-16.4-18.1-21.4c8.7-6.9,18-13.2,27.8-18.9c36.2-21,75.7-31.1,114.8-31.5
			l-17.8,22.4L169.6,66c-2.7,0.9-4.8,3-5.9,5.6l-18.4,44.8c-1.3,3.2-0.9,6.8,1.1,9.6l26.9,37.8c-3.9,3.5-7.6,8.7-12.1,15
			c-2,2.8-3.8,5.4-5.1,6.9c-1.1,1.3-2.2,2.5-3.3,3.8c-5.8,6.5-11.8,13.3-16,22.3c-9.3,19.8-7.5,42.9,4.9,60.2
			c12,16.7,31.7,25.2,52.8,22.7c3.4-0.4,6.6-1.2,9.7-2c8.5-2.1,11.2-2.3,14,0.2c1.3,1.3,1.5,1.5,1.4,5.7c0,2.7,0,6.1,0.9,9.9
			c1.5,6.1,5.3,10.4,8.4,13.8c1.5,1.7,3.1,3.4,3.6,4.6c3.1,7.5,1.8,11.6-1.2,20.7c-0.3,0.8-0.5,1.6-0.8,2.4
			c-4.5,14,1.8,27.9,7.3,40.1c1.8,4,3.5,7.7,4.6,11c9,26.7,15.7,32.8,21.1,35.2c2.8,1.3,5.7,1.9,8.7,1.9c14.4,0,29.3-13.4,36.2-21.8
			c4.3-5.3,5.4-10.7,6.2-14.5c0.4-1.9,0.7-3.5,1.3-4.5c0.9-1.5,1.9-2.7,3.3-4.2c2.7-3,6-6.8,8.1-13.6c1.6-5.2,2.8-6.4,6.8-10.6
			c0.7-0.7,1.4-1.5,2.2-2.4c13.3-14.5,9.8-25.5,6.2-37.3c-3-9.9,2.3-16.2,15.2-28.2c5.6-5.2,11.4-10.6,15.8-17.1
			c2-2.8,7.9-11.5,4.2-20c-3.6-8.4-12.8-9.8-20.1-10.9c-2.9-0.4-7.3-1.1-8.7-2c-6.2-4-9.9-12.5-13.6-20.6c-0.7-1.6-1.4-3.2-2.2-4.8
			c-1.3-2.8-2.6-6.1-4-9.7c-3.6-9.4-7.7-20.1-14.7-27.5c-6.3-6.7-18.1-9.9-28.6-12.7c-3.5-1-6.8-1.9-9-2.7c-1.8-0.7-3.8-0.8-5.7-0.4
			c-5.1,1.2-8.3,2.5-10.6,4.4c-0.6,0.5-2.5,2.1-3.5,4.8c-3.6-1.8-8.7-5.1-11.7-7.2c-0.1,0-0.1-0.1-0.2-0.1c1-4.2,0.1-7.5-0.9-9.6
			c-5.6-11.8-24-10.9-27.7-10.6c-2.1,0.2-4.7,0.3-7.5,0.4c-4.3,0.2-9.2,0.3-13.9,0.9l0.2-0.7c3.6-10.1,13.2-16.9,23.9-16.9h5.7
			c5.5,0,10-4.5,10-10s-4.5-10-10-10h-5.7c-15.9,0-30.4,8.4-38.5,21.6L165.8,119l14.6-35.5l64.4-22.7c1.8-0.6,3.3-1.7,4.5-3.2
			l28.6-36c73.2,7,142.1,48.2,181.6,116.8c10.5,18.3,18.3,37.5,23.5,57.2l-4.2,3.8c-5.5,4.9-8.7,12-8.9,19.4c0,0.1,0,0.2,0,0.2
			l-6.9-19c-1-2.8-2.5-5.4-4.5-7.7l-12.3-14.4c-4.8-5.6-11.7-8.8-19-8.8h-15c-5.3,0-10.2,2.9-12.7,7.6c-2.5,4.7-2.2,10.4,0.7,14.9
			l1.5,2.3c-9.7,8.4-20.9,15.1-32.9,19.6l-20.6-39.6V165c0-2.7-1.1-5.3-3.1-7.2L326.7,140c-1-1-2.2-1.7-3.6-2.2l-16.7-5.9
			c-5.2-1.8-10.9,0.9-12.7,6.1c-1.8,5.2,0.9,10.9,6.1,12.7l14.7,5.2l13.9,13.3v7c0,1.6,0.4,3.2,1.1,4.6l25.8,49.5
			c2.3,4.5,7.6,6.5,12.3,4.7l7.5-2.8c17.4-6.5,33.6-16.8,46.7-30c3.4-3.4,3.9-8.6,1.2-12.6l-0.5-0.8h4.8c1.5,0,2.9,0.7,3.9,1.8
			l12.3,14.4c0.4,0.5,0.7,1,0.9,1.6l13.5,37.3c1.2,3.2,3.9,5.6,7.2,6.3c0.7,0.2,1.4,0.2,2.2,0.2c2.6,0,5.2-1,7-2.9l6.4-6.5
			c4.1-4.1,6.9-9.3,8.2-15c10,80.1-21.4,163-87.5,215.1c-4.3,3.4-5.1,9.7-1.7,14c3.4,4.3,9.7,5.1,14,1.7
			c47.8-37.6,80.6-91.5,92.5-151.6C518,244.9,507.6,181.9,476.8,128.3z M48.1,282.8l41.1,31.3c1.2,0.9,2.6,1.6,4.1,1.9l24.7,4.9
			c3.2,0.6,5.8,2.5,7.4,5.3c1.6,2.8,2,6,1,9.1c-2.1,6.3-2.1,13,0,19.3l3.2,9.7c1.9,5.8-1.3,12.1-7.1,14l-9.9,3.2
			c-3.5,1.1-6,4-6.7,7.6l-8,41.7C80.4,414.7,65,395.7,52.6,374c-15.2-26.5-24.7-54.7-28.9-83.2L48.1,282.8z M106.2,123.5l-11.7,12.6
			c-0.5,0.6-1,1.2-1.4,1.9l-26.6,46.6l-23.6,17c-4.4,3.2-5.5,9.3-2.4,13.8l8.8,13c-5.1,0.8-9.7,1.4-12.7,1.7
			c-0.6-0.6-1.2-1.1-1.8-1.7c-2.4-2.2-5.7-5.2-10.6-9.5c8.1-50.2,32.2-97.5,70.1-133.6c7.3,2.3,13.2,7.7,16.1,14.8
			C113.7,107.9,112,117.2,106.2,123.5z M187.4,178.1c4.4-2.5,14.8-2.9,22.3-3.1c3-0.1,5.9-0.2,8.4-0.4c1.3-0.1,2.8-0.1,4.2,0
			c-0.6,1.6-0.8,3.4-0.6,5.2c0.5,3.1,2.4,5.8,5.1,7.3c1.9,1,4.5,2.7,7.2,4.6c7.8,5.2,16.6,11.1,24.9,11.6c7.5,0.5,11.7-3.8,13.5-5.7
			c0.1-0.1,0.3-0.3,0.4-0.4c1-0.8,2-1.9,2.7-3.3c1.6,0.5,3.3,0.9,5,1.4c5.9,1.6,16.9,4.6,19.3,7.2c4.3,4.6,7.7,13.3,10.6,21
			c1.5,3.9,2.9,7.6,4.5,11c0.7,1.5,1.4,3,2,4.5c4.6,10.3,9.8,21.9,20.9,29.2c5,3.3,11.2,4.2,16.6,5.1c0.7,0.1,1.4,0.2,2.2,0.3
			c-3.2,4.5-7.8,8.8-12.6,13.3c-12.3,11.5-27.7,25.9-20.6,48.7c3.3,10.8,3.5,12-1.9,17.8c-0.7,0.8-1.4,1.5-2.1,2.2
			c-4.6,4.9-8.2,8.8-11.2,18.3c-0.9,2.8-2,4-4.1,6.4c-1.6,1.9-3.7,4.2-5.6,7.4c-2.3,3.9-3,7.6-3.6,10.6c-0.6,3-0.9,4.4-2.1,5.9
			c-2.6,3.2-7.5,7.9-12.6,11.2c-4.7,3-7.4,3.4-8.3,3.3c-1.1-1.1-4.9-6.1-10.7-23.5c-1.4-4.3-3.4-8.7-5.3-12.9
			c-4.2-9.4-8.6-19.1-6.5-25.7c0.3-0.8,0.5-1.5,0.7-2.3c3.4-10.4,6.6-20.3,0.7-34.6c-1.8-4.4-4.7-7.6-7.2-10.4
			c-1.6-1.8-3.5-3.9-3.8-5.1c-0.4-1.4-0.3-3.1-0.3-5.1c0-5.2,0.1-13.1-7.7-20.5c-11-10.3-23.9-7.2-32.4-5.1
			c-2.6,0.6-5.1,1.3-7.3,1.5c-14,1.6-26.5-3.7-34.3-14.5c-8.2-11.4-9.3-26.7-3.1-40c3-6.4,7.6-11.6,12.9-17.6c1.2-1.3,2.3-2.6,3.5-4
			c1.9-2.2,4.1-5.3,6.3-8.5C180.2,186.6,185.2,179.4,187.4,178.1z"/>
	</g>
</g>
<g>
	<g>
		<path class="st1" d="M409.4,344.3l-4.8-18.1c-1-4-4.4-6.9-8.4-7.4c-4.1-0.5-8,1.6-9.9,5.2c-1.1,2-2.1,4.2-3,6.2
			c-1.6,3.5-3.3,7.1-5,9.1c-1,1.1-3.4,2.3-5.8,3.5c-5.7,2.8-13.6,6.6-16.6,16.2c-1.9,6-1.2,10.7-0.7,14.1c0.4,3,0.5,4-0.3,5.9
			l-0.1,0.2c-3.2,7.5-9.1,21.4-0.8,33.2c5.9,8.4,12.1,10.6,16.9,10.6c0.9,0,1.8-0.1,2.7-0.2c10.2-1.7,17.8-12.3,24-33.4l11.7-39.6
			C409.8,347.9,409.8,346.1,409.4,344.3z M378.5,383.6c-3.2,10.8-6,15.8-7.6,18c-0.2-0.2-0.4-0.5-0.6-0.8c-1.9-2.7,0.9-9.4,2.8-13.9
			l0.1-0.2c3-7.1,2.2-12.6,1.6-16.6c-0.4-2.6-0.5-3.7,0-5.2c0.4-1.2,2.7-2.5,6.2-4.2c1.6-0.8,3.3-1.6,5-2.6L378.5,383.6z"/>
	</g>
</g>
<g>
	<g>
		<path class="st1" d="M270,119.1l-0.7-0.2c-5.2-1.8-10.9,0.9-12.7,6.1c-1.8,5.2,0.9,10.9,6.1,12.7l0.7,0.2c1.1,0.4,2.2,0.6,3.3,0.6
			c4.1,0,8-2.6,9.4-6.7C277.9,126.6,275.1,120.9,270,119.1z"/>
	</g>
</g>
<g>
	<g>
		<path class="st1" d="M387.1,463.9c-2.8-4.8-8.9-6.4-13.6-3.6l-0.4,0.2c-4.8,2.8-6.4,8.9-3.6,13.7c1.8,3.2,5.2,5,8.6,5
			c1.7,0,3.4-0.4,5-1.4l0.4-0.2C388.2,474.8,389.9,468.7,387.1,463.9z"/>
	</g>
</g>
<g>
	<g>
		<path class="st1" d="M481,197.7"/>
		<path class="st1" d="M107.7,432.3"/>
		<path class="st0" d="M24.2,218.8c8.1-50.2,32.2-97.5,70.1-133.6l16.4-14.2c8.7-6.9,18-13.2,27.8-18.9
			c36.2-21,75.7-31.1,114.8-31.5l24.6,1c73.2,7,142.1,48.2,181.6,116.8c10.5,18.3,18.3,37.5,23.5,57.2l5.9,30.8
			c10,80.1-21.4,163-87.5,215.1c-4.3,3.4-5.1,9.7-1.7,14c3.4,4.3,9.7,5.1,14,1.7c47.8-37.6,80.6-91.5,92.5-151.6
			c11.9-60.7,1.5-123.6-29.3-177.3c-34-59.2-89-101.5-154.8-119.1C256.2-8.5,187.6,0.6,128.6,34.7C69.6,68.9,27.5,124,9.8,190
			S1.3,324.9,35.3,384c30.5,53.1,79.1,93.4,136.6,113.5c27.3,9.6,55.8,14.3,84.2,14.3c30.9,0,61.8-5.6,91-16.9
			c5.1-2,7.7-7.8,5.7-12.9c-2-5.2-7.7-7.7-12.9-5.7c-77.7,30-161.8,16.3-224.6-31l-17.5-14.6C80.4,414.7,65,395.7,52.6,374
			c-15.2-26.5-24.7-54.7-28.9-83.2l-2.1-20.3c-0.5-9.1-0.5-18.2,0-27.3"/>
		<path class="st1" d="M118.2,79.4"/>
		<path class="st1" d="M278,21.5"/>
		<path class="st1" d="M249.3,57.6"/>
		<path class="st1" d="M251.7,22.5c-0.7,0.9-1.4,1.7-2,2.6"/>
	</g>
</g>
</svg>
