<?xml version="1.0" encoding="utf-8"?>
<!-- Generator: Adobe Illustrator 26.5.0, SVG Export Plug-In . SVG Version: 6.00 Build 0)  -->
<svg version="1.1" xmlns="http://www.w3.org/2000/svg" xmlns:xlink="http://www.w3.org/1999/xlink" x="0px" y="0px"
	 viewBox="0 0 512 512" style="enable-background:new 0 0 512 512;" xml:space="preserve">
<style type="text/css">
	.st0{fill:#F2F2F2;}
	.st1{fill:#4CADE9;}
	.st2{display:none;}
	.st3{display:inline;}
	.st4{fill:#F2F2F2;stroke:#F2F2F2;stroke-width:4;stroke-miterlimit:10;}
	.st5{fill:#4CADE9;stroke:#4CADE9;stroke-width:4;stroke-miterlimit:10;}
</style>
<g id="Layer_1">
	<g id="Layer_1_00000055674368225761434780000010928378207115448970_">
		<g id="layer1" transform="translate(0 -280.067)">
			<path class="st0" d="M383.5,606.3c11.5,0.3,11.5-17.2,0-16.9H132.1c-11.5-0.3-11.5,17.2,0,16.9H383.5z"/>
			<path class="st0" d="M385.3,640.1H351c-11.4,0.8-10.6,17.2,0.4,16.9h33.8C396.8,657.3,396.8,639.9,385.3,640.1z"/>
			<path class="st0" d="M131.6,707.8h253.7c11.5,0.3,11.5-17.2,0-16.9H131.2C119.8,691.7,120.6,708.1,131.6,707.8z"/>
			<path class="st0" d="M131.6,657.1h186c11.5,0.3,11.5-17.2,0-16.9H131.2C119.8,640.9,120.6,657.3,131.6,657.1z"/>
			<path class="st0" d="M418.4,680v72.1c0,4.6-3.4,8-8,8h-304c-4.6,0-8-3.4-8-8v-432c0-4.6,3.4-8,8-8h248v40c0,13.2,10.8,24,24,24
				h40v240.1c0,10.7,16,10.7,16,0V368.1c0-2.1-0.8-4.2-2.3-5.7l-64-64c-1.5-1.5-3.5-2.4-5.7-2.4h-256c-13.2,0-24,10.9-24,24v432
				c0,13.2,10.8,24,24,24h304c13.2,0,24-10.8,24-24v-72C434.4,669.4,418.4,669.4,418.4,680z M370.5,323.4l36.6,36.7h-28.7
				c-4.6,0-8-3.4-8-8v-28.7H370.5z"/>
		</g>
		<circle class="st1" cx="426.6" cy="368.5" r="8.1"/>
	</g>
	<g id="Layer_2_00000142873231353622420930000018285602247827958662_" class="st2">
		<g class="st3">
			<path class="st0" d="M336,98.4c-20.7-20.6-48.1-32-77.3-32c-26.5,0-52.1,9.6-72,27.1c-1.5,1.2-1.6,3.5-0.3,4.9
				c1.2,1.4,3.5,1.6,4.9,0.3c18.6-16.3,42.6-25.4,67.4-25.4C315,73.4,361,119.3,361,175.7S315.1,278,258.7,278
				s-102.3-45.9-102.3-102.3c0-24.9,9-48.8,25.4-67.5c1.2-1.5,1.1-3.7-0.3-4.9c-1.5-1.2-3.7-1.1-4.9,0.3
				c-17.5,19.9-27.1,45.5-27.1,72c0,29.2,11.4,56.7,32,77.3s48.1,32,77.3,32c29.2,0,56.7-11.4,77.3-32c20.7-20.6,32-48.1,32-77.3
				S356.6,119,336,98.4z"/>
			<path class="st0" d="M291.5,203.7c-1.4-1.4-3.6-1.4-4.9,0c-1.6,1.6-3.4,3.1-5.3,4.4l-3.5-6.1c8.1-5.9,13.4-15.5,13.4-26.3
				c0-17.9-14.6-32.6-32.6-32.6c-12.3,0-23.1,6.9-28.6,17l-6.5-2.6c1.9-3.5,4.2-6.8,7.2-9.8c1.4-1.4,1.4-3.6,0-4.9
				c-1.4-1.4-3.6-1.4-4.9,0c-8.8,8.8-13.6,20.5-13.6,32.9c0,1.9,1.6,3.5,3.5,3.5s3.5-1.6,3.5-3.5c0-4.1,0.6-8,1.8-11.7l6.5,2.6
				c-0.9,2.9-1.3,5.9-1.3,9.1c0,17.9,14.6,32.6,32.6,32.6c4.7,0,9.1-1,13.2-2.8l3.5,6.1c-2,1-4.2,1.8-6.4,2.3
				c-1.9,0.5-3,2.4-2.5,4.3c0.4,1.6,1.8,2.6,3.3,2.6c0.3,0,0.6,0,0.9-0.1c3.9-1.1,7.7-2.6,11.2-4.7l0,0l0,0c3.5-2,6.7-4.5,9.6-7.3
				C292.9,207.3,292.9,205,291.5,203.7z M233.1,175.7c0-14.1,11.5-25.6,25.6-25.6s25.6,11.5,25.6,25.6s-11.5,25.6-25.6,25.6
				S233.1,189.8,233.1,175.7z"/>
			<path class="st0" d="M285.4,222c-8.1,4.7-17.3,7.2-26.7,7.2c-1.9,0-3.5,1.6-3.5,3.5s1.6,3.5,3.5,3.5c10.6,0,21.1-2.8,30.2-8.1
				c1.7-1,2.2-3.1,1.2-4.7C289.2,221.7,287.1,221.1,285.4,222L285.4,222z"/>
			<path class="st0" d="M228.4,123.3c-18.7,10.8-30.2,30.8-30.2,52.4c0,1.9,1.6,3.5,3.5,3.5s3.5-1.6,3.5-3.5
				c0-19,10.2-36.8,26.7-46.3c1.7-1,2.2-3.1,1.2-4.7C232.2,123,230.1,122.4,228.4,123.3z"/>
			<path class="st0" d="M206.1,123.1c-9.3,9.3-15.9,20.8-19.3,33.3c-0.5,1.9,0.6,3.8,2.5,4.3c0.3,0.1,0.6,0.1,0.9,0.1
				c1.5,0,2.9-1,3.3-2.6c3-11.4,9.1-21.9,17.5-30.2c1.4-1.4,1.4-3.6,0-4.9C209.6,121.7,207.4,121.7,206.1,123.1z"/>
			<path class="st1" d="M326.1,238.2c1.5,1.2,3.7,1.1,4.9-0.4c14.8-17.3,23-39.3,23-62.1c0-52.6-42.8-95.3-95.3-95.3
				s-95.3,42.8-95.3,95.3s42.8,95.3,95.3,95.3c22.8,0,44.8-8.2,62.1-23c1.5-1.2,1.6-3.5,0.4-4.9c-1.2-1.5-3.5-1.6-4.9-0.4
				c-16,13.7-36.4,21.3-57.6,21.3c-48.8,0-88.4-39.6-88.4-88.4s39.6-88.4,88.4-88.4s88.4,39.6,88.4,88.4c0,21.1-7.6,41.6-21.3,57.6
				C324.5,234.7,324.6,236.9,326.1,238.2L326.1,238.2z"/>
			<path class="st0" d="M258.7,128.7c5.8,0,10.8-3.9,12.3-9.5c1.8-6.8-2.2-13.9-9-15.7c-1.1-0.3-2.2-0.4-3.3-0.4
				c-5.8,0-10.8,3.9-12.4,9.5c-1.8,6.8,2.2,13.9,9,15.7C256.4,128.5,257.6,128.7,258.7,128.7z M253,114.3c0.7-2.6,3-4.3,5.6-4.3
				c0.5,0,1,0,1.5,0.2c3.1,0.9,4.9,4.1,4.1,7.1c-0.7,2.6-3,4.3-5.6,4.3c-0.5,0-1,0-1.5-0.2C254.1,120.7,252.2,117.5,253,114.3z"/>
			<path class="st1" d="M211.9,232c0.1,0.1,0.2,0.2,0.3,0.3l0,0c0.9,0.7,1.8,1.5,2.7,2.1c2.2,1.7,4.9,2.5,7.6,2.5
				c4.1,0,7.9-1.9,10.3-5.2c4.2-5.7,3-13.7-2.6-17.9c-3.7-2.8-7.1-6.1-9.8-9.8c-2.4-3.2-6.2-5.2-10.3-5.2c-2.8,0-5.4,0.9-7.6,2.5
				c-5.7,4.2-6.8,12.3-2.6,17.9C203.4,224.1,207.4,228.3,211.9,232L211.9,232z M206.7,207.1c1-0.7,2.2-1.2,3.5-1.2
				c1.9,0,3.6,0.9,4.7,2.3l-0.9,0.6c-1.5,1.2-1.9,3.3-0.7,4.9c0.7,0.9,1.7,1.4,2.8,1.4c0.7,0,1.5-0.2,2.1-0.7l1.2-0.9
				c2.1,2.1,4.3,4.1,6.7,5.9c2.6,1.9,3.1,5.6,1.2,8.2c-1.1,1.5-2.8,2.3-4.7,2.3c-1.2,0-2.5-0.4-3.5-1.2l0.7-1
				c1.2-1.5,0.9-3.7-0.7-4.9c-1.5-1.2-3.7-0.9-4.9,0.7l-0.5,0.7c-3-2.8-5.8-5.8-8.3-9.2C203.5,212.7,204.1,209,206.7,207.1
				L206.7,207.1z"/>
			<path class="st1" d="M309.1,211.4c1.6,0.7,3.3,1.1,5.1,1.1c5.1,0,9.7-3,11.8-7.7c0.5-1.1,0.9-2.1,1.3-3.2l0,0
				c0-0.1,0.1-0.3,0.1-0.4c2-5.4,3.4-11.1,4.1-17c0.3-2.7-0.2-5.5-1.6-7.9c-2-3.5-5.6-5.8-9.6-6.3c-0.5,0-1-0.1-1.5-0.1
				c-6.4,0-12,4.8-12.7,11.3c-0.6,4.7-1.8,9.2-3.6,13.4c-1.4,3.1-1.4,6.6-0.1,9.8C303.5,207.6,306,210.1,309.1,211.4L309.1,211.4z
				 M318.7,176.9c0.2,0,0.5,0,0.7,0c1.9,0.2,3.5,1.2,4.4,2.9c0.6,1.1,0.9,2.3,0.7,3.6c-0.5,4.1-1.4,8.2-2.6,12.1l-0.8-0.4
				c-1.8-0.7-3.8,0-4.6,1.8c-0.7,1.8,0,3.8,1.8,4.6l1.2,0.5c-0.9,2.1-3,3.5-5.3,3.5c-0.8,0-1.6-0.1-2.3-0.5
				c-1.5-0.6-2.5-1.8-3.1-3.2c-0.6-1.5-0.6-3,0-4.5c1.2-2.7,2.1-5.6,2.9-8.5l1.5,0.2c0.1,0,0.3,0,0.4,0c1.8,0,3.2-1.3,3.5-3.1
				c0.2-1.9-1.2-3.6-3.1-3.8l-1-0.1C313.3,179,315.8,176.9,318.7,176.9L318.7,176.9z"/>
			<path class="st1" d="M307.2,152.4c2.8,0,5.4-0.9,7.6-2.5c2.7-2,4.5-5,5-8.4s-0.4-6.7-2.4-9.5c-3.5-4.7-7.5-8.9-12-12.6
				c-0.1-0.1-0.2-0.2-0.3-0.3l0,0c-0.9-0.7-1.8-1.5-2.7-2.1c-2.2-1.7-4.9-2.5-7.6-2.5c-4.1,0-7.9,1.9-10.3,5.2
				c-4.2,5.7-3,13.7,2.6,17.9c3.7,2.8,7,6.1,9.8,9.8C299.3,150.5,303.2,152.4,307.2,152.4L307.2,152.4z M291.3,131.9
				c-2.6-1.9-3.1-5.6-1.2-8.2c1.1-1.5,2.8-2.3,4.7-2.3c1.2,0,2.5,0.4,3.5,1.2l-0.7,1c-1.2,1.5-0.9,3.7,0.7,4.9
				c0.6,0.5,1.4,0.7,2.1,0.7c1.1,0,2.1-0.5,2.8-1.4l0.5-0.7c3,2.8,5.8,5.8,8.3,9.2c0.9,1.2,1.3,2.8,1.1,4.3c-0.2,1.5-1,2.9-2.3,3.8
				c-1,0.7-2.2,1.2-3.5,1.2c-1.9,0-3.6-0.9-4.7-2.3l0.9-0.6c1.5-1.2,1.9-3.3,0.7-4.9c-1.2-1.5-3.3-1.9-4.9-0.7l-1.2,0.9
				C295.9,135.6,293.7,133.6,291.3,131.9L291.3,131.9z"/>
		</g>
	</g>
</g>
<g id="Layer_2">
	<g>
		<path class="st4" d="M311.1,214.7c-1.8-1.8-5.5-1.8-7.3,0c-2.7,2.7-5.5,4.6-8.3,6.4l-5.5-9.2c11.9-9.2,20.2-23,20.2-39.5
			c0-26.6-22-48.6-48.6-48.6c-18.3,0-33.9,10.1-42.2,25.7l-9.2-3.7c2.7-5.5,6.4-10.1,11-14.7c1.8-1.8,1.8-5.5,0-7.3
			c-1.8-1.8-5.5-1.8-7.3,0c-12.9,12.9-20.2,30.3-20.2,48.6c0,2.7,2.7,5.5,5.5,5.5s5.5-2.7,5.5-5.5c0-6.4,0.9-11.9,2.7-17.4l10.1,3.7
			c-0.9,4.6-1.8,9.2-1.8,13.8c0,26.6,22,48.6,48.6,48.6c7.3,0,13.8-1.8,19.3-4.6l5.5,9.2c-2.7,1.8-6.4,2.7-9.2,3.7
			c-2.7,0.9-4.6,3.7-3.7,6.4c0.9,2.7,2.7,3.7,4.6,3.7h0.9c5.5-1.8,11-3.7,16.5-7.3l0,0l0,0c5.5-2.7,10.1-6.4,14.7-11
			C313,220.2,313,216.5,311.1,214.7z M223.9,173.4c0-21.1,17.4-37.7,37.7-37.7s37.7,17.4,37.7,37.7s-17.4,37.7-37.7,37.7
			S223.9,194.5,223.9,173.4z"/>
		<path class="st5" d="M335,245c1.8,1.8,3.7,0.9,5.5,0c16.5-19.3,25.7-44.1,25.7-68.9c0-58.7-47.7-106.5-106.5-106.5
			s-106.5,46.8-106.5,105.6S201,281.7,259.7,281.7c25.7,0,49.6-9.2,68.9-25.7c1.8-1.8,1.8-3.7,0-5.5c-1.8-1.8-3.7-1.8-5.5,0
			c-17.4,15.6-40.4,23.8-64.2,23.8c-53.3-0.9-97.3-45-97.3-99.1S205.6,77,259.8,77s98.2,44.1,98.2,98.2c0,23.9-8.3,46.8-23.9,64.2
			C333.2,241.3,333.2,243.2,335,245L335,245z"/>
		<path class="st5" d="M204.7,241.3L204.7,241.3c9.2,5.5,19.3,2.7,23-0.9c5.5-5.5,1.8-14.7-4.6-19.3c-9.2-4.6-11.9-17.4-23-16.5
			C177.1,207.4,190,234,204.7,241.3 M197.3,212.9c2.7-1.8,6.4-0.9,9.2,1.8c-5.5,2.7,0,11.9,4.6,6.4c2.7,2.7,4.6,4.6,7.3,6.4
			c7.3,5.5-0.9,15.6-8.3,11c7.3-6.4,0-12.9-4.6-6.4C201,227.6,190.9,219.3,197.3,212.9L197.3,212.9z"/>
		<path class="st5" d="M316.6,144.1c23-2.7,11.9-29.4-1.8-36.7l0,0l0,0c-6.4-7.3-18.3-7.3-23.9,0c-4.6,6.4-3.7,15.6,2.7,20.2
			C302.9,132.1,305.7,145,316.6,144.1z M299.2,121.1c-7.3-5.5,0.9-15.6,8.3-11c-6.4,3.7,0.9,11.9,4.6,6.4l0.9-0.9
			c3.7,3.7,11,9.2,10.1,14.7c0,6.4-8.3,7.3-11.9,2.7c6.4-2.7,0-10.1-4.6-5.5C303.8,124.8,301,122.9,299.2,121.1L299.2,121.1z"/>
	</g>
</g>
</svg>
