<?xml version="1.0" encoding="utf-8"?>
<!-- Generator: Adobe Illustrator 27.1.0, SVG Export Plug-In . SVG Version: 6.00 Build 0)  -->
<svg version="1.1" xmlns="http://www.w3.org/2000/svg" xmlns:xlink="http://www.w3.org/1999/xlink" x="0px" y="0px"
	 viewBox="0 0 512 512" style="enable-background:new 0 0 512 512;" xml:space="preserve">
<style type="text/css">
	.st0{fill:#F2F2F2;}
	.st1{fill:#4CADE9;}
</style>
<g id="Syringe">
	<g id="Layer_1_00000073679847034025900390000007593842335087018895_">
		<g id="Layer_1_00000154408075746686701060000016856358904295732111_">
			<g>
				<g>
					<path class="st0" d="M231.9,117.6c-0.6-0.7-1-1.5-1-2.5V96.9c0-2,1.6-3.7,3.7-3.7s3.7,1.6,3.7,3.7v18.2c0,2-1.6,3.7-3.7,3.7
						C233.5,118.7,232.6,118.2,231.9,117.6z"/>
				</g>
				<g>
					<path class="st0" d="M258.7,118c-0.6-0.7-1-1.5-1-2.5V97.3c0-2,1.6-3.7,3.7-3.7c2,0,3.7,1.6,3.7,3.7v18.2c0,2-1.6,3.7-3.7,3.7
						C260.3,119.1,259.4,118.7,258.7,118z"/>
				</g>
				<g>
					<path class="st0" d="M282.7,118c-0.6-0.7-1-1.5-1-2.5V97.3c0-2,1.6-3.7,3.7-3.7c2,0,3.7,1.6,3.7,3.7v18.2c0,2-1.6,3.7-3.7,3.7
						C284.3,119.1,283.3,118.7,282.7,118z"/>
				</g>
				<g>
					<path class="st0" d="M307.8,118.4c-0.6-0.7-1-1.5-1-2.5V97.8c0-2,1.6-3.7,3.7-3.7c2,0,3.7,1.6,3.7,3.7V116c0,2-1.6,3.7-3.7,3.7
						C309.3,119.6,308.4,119.1,307.8,118.4z"/>
				</g>
				<g>
					<path class="st0" d="M206.5,117.6c-0.6-0.7-1-1.5-1-2.5V96.9c0-2,1.6-3.7,3.7-3.7c2,0,3.7,1.6,3.7,3.7v18.2
						c0,2-1.6,3.7-3.7,3.7C208.1,118.7,207.2,118.2,206.5,117.6z"/>
				</g>
				<g>
					<path class="st1" d="M329.7,100.5H190c-4.2,0-8.3,1.6-11.3,4.6s-4.6,7-4.6,11.3v8.6c0,4.2,1.6,8.3,4.6,11.3s7,4.6,11.3,4.6
						h139.7V100.5z M329.7,141.6L329.7,141.6L329.7,141.6z M173.1,140.9c-3.9-4.1-6.3-9.8-6.3-16v-8.6c0-6.2,2.4-12,6.8-16.4
						c4.4-4.4,10.2-6.8,16.4-6.8h140.6c1.7,0,3.4,0.7,4.6,1.9s1.9,2.9,1.9,4.6c0,0.4-0.1,0.7-0.2,1.1v40.8c0,1.7-0.7,3.4-1.9,4.6
						s-2.9,1.9-4.6,1.9H190C183.3,148.2,177.3,145.4,173.1,140.9L173.1,140.9z"/>
				</g>
				<g>
					<path class="st1" d="M149.6,130.5c-0.7-0.7-1-1.5-1-2.5v-14.4c0-2,1.6-3.7,3.7-3.7h18.8c2,0,3.7,1.6,3.7,3.7
						c0,2-1.6,3.7-3.7,3.7H156v7.2h15.1c2,0,3.7,1.6,3.7,3.7s-1.6,3.7-3.7,3.7h-18.8C151.4,131.5,150.4,131.1,149.6,130.5
						C149.7,130.5,149.6,130.5,149.6,130.5L149.6,130.5z"/>
				</g>
				<g>
					<path class="st1" d="M332.4,155.3c-1.6-1.7-2.6-4-2.6-6.5V92.7c0-5.2,4.2-9.4,9.4-9.4h1.2c2.5,0,4.9,1,6.6,2.8s2.8,4.1,2.8,6.6
						v56.1c0,5.2-4.2,9.4-9.4,9.4h-1.2c-2.5,0-4.9-1-6.6-2.8C332.5,155.4,332.5,155.4,332.4,155.3L332.4,155.3z M342,91.2L342,91.2
						c-0.5-0.5-1-0.7-1.5-0.7h-1.2c-1.2,0-2.1,1-2.1,2.1v56.1c0,0.6,0.2,1.1,0.7,1.5c0.4,0.4,1,0.7,1.5,0.7h1.2c1.2,0,2.1-1,2.1-2.1
						v-56C342.6,92.1,342.4,91.6,342,91.2L342,91.2z"/>
				</g>
				<g>
					<path class="st1" d="M343.7,129c-0.6-0.7-1-1.5-1-2.5V115c0-1,0.4-1.9,1.1-2.6s1.6-1.1,2.6-1.1h49.4c2,0,3.7,1.6,3.7,3.7v11.5
						c0,2-1.6,3.7-3.7,3.7h-49.4C345.3,130.2,344.3,129.7,343.7,129z M349.9,118.6v4.2H392v-4.2H349.9z"/>
				</g>
				<g>
					<path class="st1" d="M393,133.1c-0.7-0.7-1-1.5-1-2.5V111c0-1.3,0.8-2.6,1.9-3.3l10.8-5.6c0,0,0.1,0,0.1-0.1
						c1.8-0.9,3.8-1,5.8-0.3s3.5,2,4.3,3.8c0.5,1.1,0.8,2.3,0.8,3.6v23.2c0.2,4.1-3.1,7.7-7.2,7.9c-1.3,0.1-2.5-0.2-3.7-0.8
						c0,0-0.1,0-0.1-0.1l-10.8-5.7C393.6,133.6,393.3,133.3,393,133.1L393,133.1z M399.4,113.1v15.2l8.8,4.5h0.1
						c0.2,0,0.3-0.2,0.3-0.3s0-0.1,0-0.2V109c0-0.1,0-0.1,0-0.2s0-0.1,0-0.1s-0.1-0.1-0.2-0.2c-0.1,0-0.2,0-0.2,0L399.4,113.1z"/>
				</g>
				<g>
					<path class="st1" d="M99.8,122.5c-0.6-0.7-1-1.5-1-2.5c0-2,1.6-3.7,3.7-3.7h49.8c2,0,3.7,1.6,3.7,3.7c0,2-1.6,3.7-3.7,3.7
						h-49.8C101.4,123.6,100.5,123.2,99.8,122.5z"/>
				</g>
			</g>
		</g>
	</g>
</g>
<g id="Document">
	<g id="Layer_3">
		<g>
			<g>
				<path class="st1" d="M490.2,249.3c0-0.3-0.1-0.7-0.2-1c0-0.1-0.1-0.2-0.1-0.4c-0.2-0.4-0.5-0.8-0.8-1.1l-52.4-52.4
					c-0.3-0.3-0.7-0.6-1.1-0.8c-0.1-0.1-0.2-0.1-0.4-0.1c-0.3-0.1-0.7-0.2-1-0.2c-0.1,0-0.1,0-0.2,0H329.2c-2.1,0-3.8,1.6-3.8,3.8
					v11.3h-18.8c-2.1,0-3.8,1.6-3.8,3.8v202.3c0,2.1,1.6,3.8,3.8,3.8H464c2.1,0,3.8-1.6,3.8-3.8v-18.8h18.8c2.1,0,3.8-1.6,3.8-3.8
					V249.6C490.2,249.4,490.2,249.3,490.2,249.3z M437.7,206.1l39.6,39.6h-39.6V206.1z M460.3,410.5H310.4V215.8h15v176
					c0,2.1,1.6,3.8,3.8,3.8h131.1V410.5L460.3,410.5z M482.8,388.1H332.9V200.8h97.4v48.7c0,2.1,1.6,3.8,3.8,3.8h48.7V388.1
					L482.8,388.1z"/>
			</g>
		</g>
	</g>
</g>
<g id="Document_x5F_FLASK">
	<g id="Layer_7">
		<g>
			<g>
				<path class="st0" d="M465.6,291.1v-4.9h1.3c3.8,0,6.7-3,6.7-6.7v-13.2c0-1.3-1.1-2.3-2.3-2.3h-37.1c-1.3,0-2.3,1.1-2.3,2.3v13.2
					c0,3.8,3,6.7,6.7,6.7h1.3v4.9c-6.5,0.1-11.8,5.4-11.8,11.9v67c0,6.6,5.4,11.9,11.9,11.9h25.7c6.6,0,11.9-5.4,11.9-11.9v-66.9
					C477.4,296.6,472.1,291.2,465.6,291.1z M436.4,268.6h32.4v4.2h-32.4V268.6z M472.8,345.3V370c0,4-3.3,7.2-7.2,7.2h-25.7
					c-4,0-7.2-3.3-7.2-7.2v-44.3c5.6,0.8,12.2,2.8,16.3,8.2C455.8,343.5,463.8,345.1,472.8,345.3L472.8,345.3z M472.8,340.6
					c-8.2-0.2-14.2-1.4-20.1-9.4c-5.1-6.9-13.4-9.3-20-10.2v-17.8c0-4,3.3-7.2,7.2-7.2h2.2c1.3,0,2.3-1.1,2.3-2.3V284
					c0-1.3-1.1-2.3-2.3-2.3h-3.6c-1.2,0-2-1-2-2v-1.9h32.4v1.9c0,1.2-1,2-2,2h-3.6c-1.3,0-2.3,1.1-2.3,2.3v9.6
					c0,1.3,1.1,2.3,2.3,2.3h2.2c4,0,7.2,3.3,7.2,7.2L472.8,340.6L472.8,340.6z"/>
			</g>
		</g>
		<g>
			<g>
				<path class="st0" d="M449.8,369.5H449c-1.3,0-2.3,1.1-2.3,2.3c0,1.3,1.1,2.3,2.3,2.3h0.8c1.3,0,2.3-1.1,2.3-2.3
					S451,369.5,449.8,369.5z"/>
			</g>
		</g>
		<g>
			<g>
				<path class="st0" d="M466.4,369.5h-9.9c-1.3,0-2.3,1.1-2.3,2.3c0,1.3,1.1,2.3,2.3,2.3h9.9c1.3,0,2.3-1.1,2.3-2.3
					C468.7,370.6,467.7,369.5,466.4,369.5z"/>
			</g>
		</g>
	</g>
</g>
<g id="Document_x5F_DNA">
	<g id="Layer_6">
		<g>
			<g>
				<path class="st0" d="M384.6,328.8c-11.4-5.4-20-11.4-25-18.3h37.9c2.1,0,3.6-1.4,3.6-3.6c0-2.1-1.4-3.6-3.6-3.6H356
					c-0.7-2.5-1.4-4.6-1.4-7.1c0-11.1,9.3-19.6,16.8-25c1.8-1.1,2.1-3.2,1.1-5c-1.1-1.8-3.2-2.1-5-1.1c-13.2,9.3-20,20-20,31.1
					c0,15,12.1,29,34.3,39c13.2,6.1,22.5,13.6,27.1,21.8h-40c-2.1,0-3.6,1.4-3.6,3.6c0,2.1,1.4,3.6,3.6,3.6h42.5
					c0.4,1.1,0.4,2.5,0.4,3.6v3.6c0,2.1,1.4,3.6,3.6,3.6c2.1,0,3.6-1.4,3.6-3.6v-3.6C419,352.8,406.8,338.8,384.6,328.8z"/>
			</g>
		</g>
		<g>
			<g>
				<path class="st0" d="M372.4,337.8c-1.1-1.8-3.2-2.1-5-1.1c-13.2,9.3-20,20-20,31.1v3.6c0,2.1,1.4,3.6,3.6,3.6
					c2.1,0,3.6-1.4,3.6-3.6v-3.6c0-11.1,9.3-19.6,16.8-25C373.2,341.7,373.6,339.6,372.4,337.8z"/>
			</g>
		</g>
		<g>
			<g>
				<path class="st0" d="M384.6,257.3c-13.2-6.1-22.5-13.6-27.1-21.8h40c2.1,0,3.6-1.4,3.6-3.6s-1.4-3.6-3.6-3.6H355
					c-0.4-1.1-0.4-2.5-0.4-3.6v-3.6c0-2.1-1.4-3.6-3.6-3.6c-2.1,0-3.6,1.4-3.6,3.6v3.6c0,15,12.1,29,34.3,39
					c11.4,5.4,20,11.4,25,18.3H369c-2.1,0-3.6,1.4-3.6,3.6c0,2.1,1.4,3.6,3.6,3.6h41.5c0.7,2.5,1.4,4.6,1.4,7.1
					c0,11.1-9.3,20-17.1,25.4c-1.8,1.1-2.1,3.2-1.1,5c0.7,1.1,1.8,1.4,2.9,1.4c0.7,0,1.4-0.4,2.1-0.7c13.2-8.9,20.4-19.6,20.4-31.1
					C419,281.3,406.8,267.4,384.6,257.3z"/>
			</g>
		</g>
		<g>
			<g>
				<path class="st0" d="M415.3,217.7c-2.1,0-3.6,1.4-3.6,3.6v3.6c0,11.1-9.3,20-17.1,25.4c-1.8,1.1-2.1,3.2-1.1,5
					c0.7,1.1,1.8,1.4,2.9,1.4c0.7,0,1.4-0.4,2.1-0.7c13.2-8.9,20.4-19.6,20.4-31.1v-3.6C419,219.2,417.5,217.7,415.3,217.7z"/>
			</g>
		</g>
	</g>
</g>
<g id="Dog">
	<g id="XMLID_139_">
		<path id="XMLID_142_" class="st1" d="M277.4,251.4c-3.1-3.8-7.7-5.9-12.5-5.9h-11.6c-5.2-9-14.8-14.8-25.5-14.8h-2.3V213
			c0-2.8-2.3-5.1-5.1-5.1c-19,0-34.3,15.4-34.3,34.3v15.9c0,11.1-6.1,21.1-15.9,26.1l-16.5,8.6c-2.5,1.3-3.5,4.3-2.2,6.8
			c0.9,1.7,2.7,2.8,4.5,2.8c0.8,0,1.5-0.2,2.3-0.6l16.5-8.6c13.2-6.8,21.4-20.3,21.4-35.1v-15.9c0-11.5,8.2-21.3,19-23.6v17.1
			c0,2.8,2.3,5.1,5.1,5.1h7.5c7.7,0,14.6,4.6,17.6,11.7c0.8,1.9,2.6,3.1,4.7,3.1h14.8c1.8,0,3.6,0.8,4.8,2.2
			c1.2,1.4,1.7,3.3,1.3,5.1l-1.9,10.9c-1.2,6.9-7.1,11.9-14.1,11.9h-22.6c-0.1,0-0.1,0-0.2,0c-0.1,0-0.1,0-0.2,0
			c-2.8,0-5.1,2.3-5.1,5.1v24.8c0,18-3.5,35.4-10.3,52c-0.4,1.1-0.5,2.1-0.2,3.2l12.5,47.7c0.2,0.9,0.7,1.6,1.3,2.2l4.4,4.7
			c0.8,0.9,0.6,1.7,0.4,2.2c-0.2,0.5-0.7,1.3-1.8,1.3h-16.9l-21.8-56.5v-23.5c0-2.8-2.3-5.1-5.1-5.1s-5.1,2.3-5.1,5.1v24.4
			c0,0.6,0.1,1.3,0.4,1.8l20.8,53.7h-17.9c-2.4-15.9-16.2-28.1-32.7-28.1H149l-2.3-13.5c-2.4-14.3-13.2-25.6-27.4-28.7l-9.6-2
			c-2.7-0.6-5.4,1.2-6.1,3.9c-0.6,2.7,1.2,5.4,3.9,6.1l9.6,2c10.1,2.1,17.8,10.2,19.5,20.4l2,11.7h-31.1c-2.8,0-5.1,2.3-5.1,5.1
			s2.3,5.1,5.1,5.1h47.2c11,0,20.1,7.7,22.4,17.9h-70.5c-25.4,0-46.1-20.7-46.1-46.1c0-19,10.5-36.3,27.4-45l29.5-15.2
			c2.5-1.3,3.5-4.3,2.2-6.8s-4.3-3.5-6.8-2.2L83.5,329c-8.1,4.1-15,10-20.3,16.9c-0.6-2.7-0.9-5.4-0.9-8.2c0-14.1,7.7-27.3,20-34.2
			c3.4-1.9,4.9-5.7,3.9-9.4c-1.1-3.9-4.6-6.7-8.7-6.7c0,0,0,0-0.1,0l0,0l0,0c-30.3,0-55.4,25-56,55.7c-0.4,21.4,11.4,41.4,30.2,51.4
			c5.3,25.6,27.9,44.9,55,44.9h126.5c5,0,9.2-2.8,11.2-7.4c1.9-4.5,1.1-9.6-2.4-13.2l-3.6-3.8l-11.7-44.8
			c6.9-17.3,10.4-35.6,10.4-54.3v-19.8h17.8c11.9,0,22.1-8.6,24.1-20.4l1.9-10.9C281.9,260,280.6,255.2,277.4,251.4L277.4,251.4z
			 M31.7,343.2c0.5-23.5,18.4-42.8,40.8-45.4c-12.7,9.2-20.3,24-20.3,40c0,6.8,1.3,13.5,4,19.6c-3.5,7.5-5.4,15.7-5.6,24.2
			C38.7,372.7,31.4,358.4,31.7,343.2z"/>
		<path id="XMLID_143_" class="st1" d="M233,261.8c1-1,1.4-2.2,1.4-3.6s-0.6-2.6-1.4-3.6c-0.9-1-2.2-1.4-3.6-1.4
			c-1.3,0-2.6,0.6-3.6,1.4c-1,1-1.4,2.2-1.4,3.6s0.6,2.6,1.4,3.6c1,1,2.2,1.4,3.6,1.4C230.8,263.3,232,262.7,233,261.8z"/>
		<path id="XMLID_144_" class="st1" d="M135.6,312.9c1.3,0,2.6-0.6,3.6-1.4c1-1,1.4-2.2,1.4-3.6c0-1.3-0.6-2.6-1.4-3.6
			c-1-1-2.2-1.4-3.6-1.4s-2.7,0.6-3.6,1.4c-1,1-1.4,2.2-1.4,3.6s0.6,2.6,1.4,3.6C133,312.3,134.3,312.9,135.6,312.9z"/>
	</g>
</g>
<g id="Ring">
	<g id="Layer_2_00000003097561323589094370000001880800511684200364_">
		<g>
			<path class="st0" d="M72.1,91.5c-1.9,2.1-3.8,4.3-5.6,6.5c-2.9,3.5-2.5,8.7,1,11.6c1.5,1.3,3.4,1.9,5.3,1.9c2.3,0,4.7-1,6.3-2.9
				c1.7-2.1,3.5-4.1,5.3-6.1c3-3.4,2.7-8.6-0.6-11.6C80.3,87.9,75.2,88.2,72.1,91.5z"/>
			<path class="st0" d="M103.4,62.2c-2.2,1.8-4.5,3.6-6.6,5.4c-3.5,2.9-3.9,8.1-1,11.6c1.6,1.9,3.9,2.9,6.3,2.9
				c1.9,0,3.7-0.6,5.3-1.9c2-1.7,4.1-3.4,6.2-5.1c3.6-2.8,4.2-8,1.4-11.5C112.2,60.1,107,59.4,103.4,62.2z"/>
			<path class="st0" d="M177,472.1c-2.5-0.9-5-1.9-7.5-2.9c-4.2-1.7-9,0.3-10.7,4.5s0.3,9,4.5,10.7c2.7,1.1,5.3,2.1,8.1,3.1
				c0.9,0.3,1.9,0.5,2.8,0.5c3.4,0,6.5-2.1,7.7-5.4C183.5,478.4,181.3,473.7,177,472.1z"/>
			<path class="st0" d="M139.3,38.8c-2.5,1.3-5,2.7-7.5,4.2c-3.9,2.3-5.3,7.3-3,11.2c1.5,2.6,4.3,4.1,7.1,4.1c1.4,0,2.8-0.4,4.1-1.1
				c2.3-1.3,4.6-2.6,7-3.9c4-2.1,5.5-7.1,3.3-11.1C148.3,38.1,143.3,36.6,139.3,38.8z"/>
			<path class="st0" d="M140.7,455.2c-2.3-1.3-4.6-2.7-6.9-4.1c-3.8-2.4-8.9-1.2-11.3,2.6c-2.4,3.8-1.2,8.9,2.6,11.3
				c2.4,1.5,4.9,3,7.4,4.4c1.3,0.7,2.7,1.1,4.1,1.1c2.8,0,5.6-1.5,7.1-4.1C146,462.5,144.6,457.5,140.7,455.2z"/>
			<path class="st0" d="M178.7,21.9c-2.7,0.9-5.4,1.8-8.1,2.8c-4.3,1.6-6.4,6.3-4.9,10.5c1.2,3.3,4.4,5.4,7.7,5.4
				c0.9,0,1.9-0.2,2.8-0.5c2.5-0.9,5-1.8,7.6-2.6c4.3-1.4,6.7-6,5.2-10.4C187.7,22.8,183.1,20.5,178.7,21.9z"/>
			<path class="st0" d="M28.7,182.7c0.9,0.3,1.9,0.5,2.8,0.5c3.4,0,6.5-2.1,7.7-5.4c0.9-2.5,1.9-5,2.9-7.5c1.7-4.2-0.3-9-4.6-10.7
				c-4.2-1.7-9,0.3-10.7,4.6c-1.1,2.7-2.1,5.3-3.1,8C22.3,176.4,24.5,181.1,28.7,182.7z"/>
			<path class="st0" d="M44.9,144.4c1.3,0.7,2.7,1.1,4.1,1.1c2.8,0,5.6-1.5,7.1-4.1c1.3-2.3,2.7-4.6,4.1-6.9
				c2.4-3.8,1.2-8.9-2.6-11.3s-8.9-1.2-11.3,2.6c-1.5,2.4-3,4.9-4.4,7.4C39.6,137.2,41,142.2,44.9,144.4z"/>
			<path class="st0" d="M481.7,215.3c0.5,2.6,0.9,5.3,1.3,7.9c0.6,4.1,4.1,7,8.1,7c0.4,0,0.8,0,1.2-0.1c4.5-0.6,7.6-4.8,7-9.3
				c-0.4-2.8-0.9-5.7-1.4-8.5c-0.8-4.5-5.1-7.4-9.5-6.6C483.8,206.5,480.9,210.8,481.7,215.3z"/>
			<path class="st0" d="M471.2,176.6c0.9,2.5,1.8,5,2.6,7.6c1.1,3.5,4.3,5.6,7.8,5.6c0.9,0,1.7-0.1,2.6-0.4c4.3-1.4,6.7-6,5.2-10.4
				c-0.9-2.7-1.8-5.4-2.8-8.1c-1.6-4.3-6.3-6.4-10.5-4.9C471.8,167.7,469.6,172.4,471.2,176.6z"/>
			<path class="st0" d="M19.5,223.2c0.5,0.1,0.9,0.1,1.4,0.1c3.9,0,7.4-2.8,8.1-6.8c0.5-2.6,1-5.3,1.5-7.9c0.9-4.4-1.9-8.8-6.4-9.7
				c-4.4-0.9-8.8,1.9-9.7,6.4c-0.6,2.8-1.1,5.6-1.6,8.4C12,218.2,15,222.4,19.5,223.2z"/>
			<path class="st0" d="M22.4,305.8c4.5-0.8,7.4-5,6.7-9.5c-0.5-2.6-0.9-5.3-1.3-7.9c-0.6-4.5-4.8-7.6-9.3-7s-7.6,4.8-7,9.3
				c0.4,2.8,0.9,5.7,1.4,8.5c0.7,4,4.2,6.8,8.1,6.8C21.5,305.9,22,305.9,22.4,305.8z"/>
			<path class="st0" d="M25.6,256c0-2.6,0-5.1,0.1-7.6c0.2-4.5-3.4-8.3-7.9-8.5c-4.2-0.4-8.3,3.4-8.5,7.9c-0.1,2.7-0.1,5.4-0.1,8.2
				v0.4c0,4.5,3.7,8,8.2,8S25.6,260.5,25.6,256z"/>
			<path class="st0" d="M458.1,147.4c1.5,2.7,4.3,4.3,7.2,4.3c1.3,0,2.7-0.3,3.9-1c4-2.2,5.5-7.1,3.3-11.1c-1.4-2.5-2.7-5-4.2-7.5
				c-2.3-3.9-7.3-5.2-11.2-3c-3.9,2.3-5.3,7.3-3,11.2C455.5,142.7,456.8,145.1,458.1,147.4z"/>
			<path class="st0" d="M413.2,66.9c-3.5-2.9-8.7-2.4-11.6,1c-2.9,3.5-2.5,8.7,1,11.6c2.1,1.7,4.1,3.5,6.1,5.3
				c1.6,1.4,3.5,2.1,5.5,2.1c2.2,0,4.5-0.9,6.1-2.7c3-3.4,2.7-8.6-0.6-11.6C417.6,70.6,415.4,68.7,413.2,66.9z"/>
			<path class="st0" d="M449.1,103.8c-1.8-2.3-3.6-4.5-5.4-6.7c-2.9-3.5-8.1-3.9-11.6-1s-3.9,8.1-1,11.6c1.7,2,3.4,4.1,5,6.2
				s4,3.2,6.5,3.2c1.8,0,3.6-0.6,5-1.7C451.2,112.5,451.9,107.4,449.1,103.8z"/>
			<path class="st0" d="M403.2,432c-2,1.7-4.1,3.4-6.2,5c-3.6,2.8-4.2,8-1.4,11.5c1.6,2.1,4,3.2,6.5,3.2c1.8,0,3.6-0.6,5-1.7
				c2.3-1.8,4.5-3.6,6.7-5.4c3.5-2.9,3.9-8.1,1-11.6C411.9,429.6,406.7,429.1,403.2,432z"/>
			<path class="st0" d="M215.7,482.4c-2.6-0.5-5.3-1-7.9-1.5c-4.4-0.9-8.8,1.9-9.7,6.3s1.9,8.8,6.3,9.7c2.8,0.6,5.6,1.1,8.4,1.6
				c0.5,0.1,0.9,0.1,1.4,0.1c3.9,0,7.4-2.8,8.1-6.8C223.2,487.4,220.2,483.2,215.7,482.4z"/>
			<path class="st0" d="M385.4,46.8c-2.4-1.5-4.9-3-7.4-4.4c-3.9-2.3-8.9-0.9-11.2,3c-2.3,3.9-0.9,9,3,11.2c2.3,1.3,4.6,2.7,6.9,4.1
				c1.3,0.8,2.8,1.2,4.3,1.2c2.7,0,5.4-1.4,7-3.9C390.4,54.2,389.2,49.2,385.4,46.8z"/>
			<path class="st0" d="M263.3,9.9c-2.6-0.1-5.3-0.2-8.2-0.1l-0.3,8.2V9.7c-4.5,0-7.9,3.7-7.9,8.2s4,8.2,8.5,8.2
				c2.5,0,4.9,0,7.4,0.1c0.1,0,0.2,0,0.3,0c4.4,0,8.1-3.5,8.2-8C271.4,13.8,267.9,10,263.3,9.9z"/>
			<path class="st0" d="M295.5,482.4c-2.6,0.5-5.3,0.9-7.9,1.2c-4.5,0.6-7.6,4.8-7,9.3c0.6,4.1,4.1,7.1,8.1,7.1c0.4,0,0.8,0,1.1-0.1
				c2.8-0.4,5.7-0.9,8.5-1.3c4.5-0.8,7.4-5,6.7-9.5C304.2,484.6,300,481.5,295.5,482.4z"/>
			<path class="st0" d="M256.3,485.9h-0.9c-2.6,0-5.2,0-7.8-0.1c-4.5-0.1-8.3,3.4-8.5,7.9s3.4,8.3,7.9,8.5c2.7,0.1,5.5,0.1,8.2,0.1
				c0.1,0,0.3,0,0.4,0c4.5,0,8.6-3.7,8.6-8.2C264.2,489.5,260.9,485.9,256.3,485.9z"/>
			<path class="st0" d="M220.5,12.2c-2.8,0.4-5.7,0.9-8.5,1.4c-4.5,0.8-7.4,5-6.7,9.5c0.7,4,4.2,6.8,8.1,6.8c0.5,0,1,0,1.4-0.1
				c2.6-0.5,5.3-0.9,7.9-1.3c4.5-0.6,7.6-4.8,7-9.3S225,11.5,220.5,12.2z"/>
			<path class="st0" d="M305.9,14.9c-2.8-0.6-5.6-1.1-8.4-1.6c-4.5-0.8-8.7,2.2-9.5,6.7s2.2,8.7,6.7,9.5c2.7,0.5,5.3,1,7.9,1.5
				c0.5,0.1,1.1,0.2,1.6,0.2c3.8,0,7.2-2.7,8-6.6C313.2,20.2,310.4,15.8,305.9,14.9z"/>
			<path class="st0" d="M347.1,27.4c-2.7-1.1-5.3-2.1-8-3.1c-4.3-1.6-9,0.7-10.5,4.9c-1.5,4.3,0.7,9,4.9,10.5c2.5,0.9,5,1.9,7.5,2.9
				c1,0.4,2,0.6,3.1,0.6c3.3,0,6.3-1.9,7.6-5.1C353.3,33.8,351.3,29.1,347.1,27.4z"/>
			<path class="st0" d="M334.2,472c-2.5,0.9-5,1.8-7.6,2.6c-4.3,1.4-6.7,6-5.3,10.4c1.1,3.5,4.3,5.7,7.8,5.7c0.8,0,1.7-0.1,2.5-0.4
				c2.7-0.9,5.4-1.8,8.1-2.8c4.3-1.5,6.5-6.3,4.9-10.5C343.2,472.6,338.4,470.4,334.2,472z"/>
			<path class="st0" d="M370.4,455c-2.3,1.3-4.6,2.6-7,3.9c-4,2.1-5.5,7.1-3.4,11.1c1.5,2.8,4.3,4.4,7.3,4.4c1.3,0,2.6-0.3,3.8-1
				c2.5-1.3,5-2.7,7.5-4.2c3.9-2.3,5.3-7.3,3-11.2C379.4,454.1,374.4,452.8,370.4,455z"/>
		</g>
	</g>
</g>
</svg>
