<?xml version="1.0" encoding="utf-8"?>
<!-- Generator: Adobe Illustrator 26.5.0, SVG Export Plug-In . SVG Version: 6.00 Build 0)  -->
<svg version="1.1" id="Layer_1" xmlns="http://www.w3.org/2000/svg" xmlns:xlink="http://www.w3.org/1999/xlink" x="0px" y="0px"
	 viewBox="0 0 512 512" style="enable-background:new 0 0 512 512;" xml:space="preserve">
<style type="text/css">
	.st0{fill:#4CADE9;}
	.st1{fill:#F2F2F2;}
</style>
<g id="Layer_1_00000122703515514205415930000012873949961891193497_">
	<g>
		<g>
			<path class="st0" d="M231.4,213.8c-4.6,0-8.3,3.7-8.3,8.3s3.7,8.3,8.3,8.3s8.3-3.7,8.3-8.3S235.9,213.8,231.4,213.8z"/>
		</g>
	</g>
	<g>
		<g>
			<path class="st0" d="M198.4,164.3c-4.6,0-8.3,3.7-8.3,8.3s3.7,8.3,8.3,8.3s8.3-3.7,8.3-8.3S202.9,164.3,198.4,164.3z"/>
		</g>
	</g>
	<g>
		<g>
			<path class="st0" d="M99.3,378.9c-4.6,0-8.3,3.7-8.3,8.3c0,4.6,3.7,8.3,8.3,8.3s8.3-3.7,8.3-8.3
				C107.6,382.6,103.9,378.9,99.3,378.9z"/>
		</g>
	</g>
	<g>
		<g>
			<path class="st1" d="M84.9,428.5c-14.8,0-28.1-7.6-35.6-20.4S41.7,379.9,49,367l35-62.2c17,5.9,34.5,8.9,52.4,8.9
				c2.6,0,5.3-0.1,7.9-0.2c23-1.1,45.3-7.2,66.1-18c15.8-8.2,32.4-13.3,49.5-15.3c-2.3-3.8-3-8.6-2-13.1c0.3-1.2,0.7-2.4,1.3-3.5
				c-19.4,2.2-38.4,7.9-56.3,17.2c-35,18.1-73.9,21.3-110.6,9.3L156,176.6c0.7-1.2,1.1-2.6,1.1-4V71.9h8.3c4.6,0,8.3-3.7,8.3-8.3
				s-3.7-8.3-8.3-8.3h-16.5c-4.6,0-8.3-3.7-8.3-8.3s3.7-8.3,8.3-8.3H248c4.6,0,8.3,3.7,8.3,8.3s-3.7,8.3-8.3,8.3h-16.5
				c-4.6,0-8.3,3.7-8.3,8.3s3.7,8.3,8.3,8.3h8.3v100.7c0,1.4,0.4,2.8,1.1,4l35.3,62.8c1.2-0.8,2.6-1.4,4-1.9
				c4.2-1.4,8.5-0.6,12.1,1.5c0.7-0.2,1.5-0.4,2.3-0.5l-38.3-68.1v-100c9.6-3.4,16.5-12.6,16.5-23.3c0-13.7-11.1-24.8-24.8-24.8
				h-99.1c-13.7,0-24.8,11.1-24.8,24.8c0,10.8,6.9,19.9,16.5,23.3v100l-106,188.5c-10.2,18.1-10,39.6,0.5,57.5
				C45.5,434.3,64.2,445,84.9,445h172.2c-1.3-2.4-2.1-5.1-2.2-7.9c-0.1-3.1,0.8-6.1,2.4-8.6H84.9z"/>
		</g>
	</g>
	<g>
		<g>
			<path class="st1" d="M165.4,213.8c-13.7,0-24.8,11.1-24.8,24.8s11.1,24.8,24.8,24.8s24.8-11.1,24.8-24.8S179,213.8,165.4,213.8z
				 M165.4,246.9c-4.6,0-8.3-3.7-8.3-8.3s3.7-8.3,8.3-8.3s8.3,3.7,8.3,8.3C173.6,243.2,169.9,246.9,165.4,246.9z"/>
		</g>
	</g>
	<g>
		<g>
			<path class="st1" d="M256.3,385.8c-0.1-2.5,0.5-4.8,1.5-6.9H132.3c-4.6,0-8.3,3.7-8.3,8.3c0,4.6,3.7,8.3,8.3,8.3h127.2
				C257.6,392.7,256.4,389.4,256.3,385.8z"/>
		</g>
	</g>
	<g id="Layer_2_00000051367881732414405280000013776588314835823515_">
		<g>
			<g>
				<path class="st0" d="M336.9,340.9c-2-1.4-4.7-1-6.1,1L316.3,362l-8.3-9c-1.6-1.8-4.4-1.9-6.2-0.2c-1.8,1.6-1.9,4.4-0.2,6.2
					l12,12.9c0.8,0.9,2,1.4,3.2,1.4c0.1,0,0.2,0,0.3,0c1.3-0.1,2.5-0.7,3.3-1.8l17.6-24.4C339.3,345.1,338.9,342.4,336.9,340.9z"/>
			</g>
		</g>
		<g>
			<g>
				<path class="st1" d="M427.9,412.6h-70c-2.4,0-4.4,2-4.4,4.4s2,4.4,4.4,4.4h70c2.4,0,4.4-2,4.4-4.4
					C432.2,414.5,430.3,412.6,427.9,412.6z"/>
			</g>
		</g>
		<g>
			<g>
				<path class="st0" d="M336.9,401.2c-2-1.4-4.7-1-6.1,1l-14.5,20.1l-8.3-9c-1.6-1.8-4.4-1.9-6.2-0.2c-1.8,1.6-1.9,4.4-0.2,6.2
					l12,12.9c0.8,0.9,2,1.4,3.2,1.4c0.1,0,0.2,0,0.3,0c1.3-0.1,2.5-0.7,3.3-1.8l17.6-24.4C339.3,405.3,338.9,402.6,336.9,401.2z"/>
			</g>
		</g>
		<g>
			<g>
				<path class="st1" d="M427.9,352.3h-38c-2.4,0-4.4,2-4.4,4.4s2,4.4,4.4,4.4h38c2.4,0,4.4-2,4.4-4.4S430.3,352.3,427.9,352.3z"/>
			</g>
		</g>
		<g>
			<g>
				<path class="st1" d="M369.5,352.3h-11.7c-2.4,0-4.4,2-4.4,4.4s2,4.4,4.4,4.4h11.7c2.4,0,4.4-2,4.4-4.4S371.9,352.3,369.5,352.3z
					"/>
			</g>
		</g>
		<g>
			<g>
				<path class="st1" d="M427.9,292.2h-70c-2.4,0-4.4,2-4.4,4.4s2,4.4,4.4,4.4h70c2.4,0,4.4-2,4.4-4.4S430.3,292.2,427.9,292.2z"/>
			</g>
		</g>
		<g>
			<g>
				<path class="st0" d="M336.9,280.7c-2-1.4-4.7-1-6.1,1l-14.5,20.1l-8.3-9c-1.6-1.8-4.4-1.9-6.2-0.2c-1.8,1.6-1.9,4.4-0.2,6.2
					l12,12.9c0.8,0.9,2,1.4,3.2,1.4c0.1,0,0.2,0,0.3,0c1.3-0.1,2.5-0.7,3.3-1.8l17.6-24.4C339.3,284.8,338.9,282.1,336.9,280.7z"/>
			</g>
		</g>
		<g>
			<g>
				<path class="st1" d="M466.1,232.8h-43v-6.1c0-3.7-3-6.7-6.7-6.7h-29.2v-5.7c0-8-6.5-14.4-14.4-14.4H360c-8,0-14.4,6.5-14.4,14.4
					v5.7h-29.2c-3.7,0-6.7,3-6.7,6.7v6.1h-43c-7,0-12.7,5.7-12.7,12.7V276c0,2.4,2,4.4,4.4,4.4c2.4,0,4.4-2,4.4-4.4v-30.5
					c0-2.2,1.8-4,4-4h9.4v224.1c0,6.8,5.5,12.3,12.3,12.3h156c6.8,0,12.3-5.5,12.3-12.3v-224h9.4c2.2,0,4,1.8,4,4V485
					c0,2.2-1.8,4-4,4H266.6c-2.2,0-4-1.8-4-4V296.4c0-2.4-2-4.4-4.4-4.4s-4.4,2-4.4,4.4V485c0,7,5.7,12.7,12.7,12.7H466
					c7,0,12.7-5.7,12.7-12.7V245.6C478.8,238.5,473.1,232.8,466.1,232.8z M318.3,228.8h31.5c2.4,0,4.4-2,4.4-4.4v-10.1
					c0-3.1,2.6-5.7,5.7-5.7h12.8c3.1,0,5.7,2.6,5.7,5.7v10.1c0,2.4,2,4.4,4.4,4.4h31.5v20h-96V228.8z M448,465.7L448,465.7
					c0,2-1.6,3.6-3.6,3.6h-156c-2,0-3.6-1.6-3.6-3.6V241.6h24.9v9.3c0,3.7,3,6.7,6.7,6.7h100.1c3.7,0,6.7-3,6.7-6.7v-9.3H448V465.7z
					"/>
			</g>
		</g>
	</g>
	<g id="Layer_3">
		<g>
			<g>
				<path class="st0" d="M92.2,290.1L156,176.6c0.7-1.2,1.1-2.6,1.1-4V71.9h8.3c4.6,0,8.3-3.7,8.3-8.3s-3.7-8.3-8.3-8.3h-16.5
					c-4.6,0-8.3-3.7-8.3-8.3s3.7-8.3,8.3-8.3H248c4.6,0,8.3,3.7,8.3,8.3s-3.7,8.3-8.3,8.3h-16.5c-4.6,0-8.3,3.7-8.3,8.3
					s3.7,8.3,8.3,8.3h8.3v100.7c0,1.4,0.4,2.8,1.1,4l35.3,62.8c1.2-0.8,2.6-1.4,4-1.9c4.2-1.4,8.5-0.6,12.1,1.5
					c0.7-0.2,1.5-0.4,2.3-0.5l-38.3-68.1v-100c9.6-3.4,16.5-12.6,16.5-23.3c0-13.7-11.1-24.8-24.8-24.8h-99.1
					c-13.7,0-24.8,11.1-24.8,24.8c0,10.8,6.9,19.9,16.5,23.3v100l-106,188.5c-10.2,18.1-10,39.6,0.5,57.5
					c10.4,17.9,29,28.6,49.8,28.6h172.2c-1.3-2.4-2.1-5.1-2.2-7.9c-0.1-3.1,0.8-6.1,2.4-8.6H84.9c-14.8,0-28.1-7.6-35.6-20.4
					S41.7,379.9,49,367l35-62.2"/>
			</g>
		</g>
		<g>
			<g>
				<path class="st0" d="M456.6,241.6h9.4c2.2,0,4,1.8,4,4V485c0,2.2-1.8,4-4,4H266.5c-2.2,0-4-1.8-4-4V296.4c0-2.4-2-4.4-4.4-4.4
					s-4.4,2-4.4,4.4V485c0,7,5.7,12.7,12.7,12.7H466c7,0,12.7-5.7,12.7-12.7V245.6c0-7-5.7-12.7-12.7-12.7h-43v-6.1
					c0-3.7-3-6.7-6.7-6.7h-29.2v-5.7c0-8-6.5-14.4-14.4-14.4h-12.8c-8,0-14.4,6.5-14.4,14.4v5.7h-29.2c-3.7,0-6.7,3-6.7,6.7v6.1h-43
					c-7,0-12.7,5.7-12.7,12.7v30.5c0,2.4,2,4.4,4.4,4.4c2.4,0,4.4-2,4.4-4.4v-30.5c0-2.2,1.8-4,4-4h43v9.3c0,3.7,3,6.7,6.7,6.7
					h100.1c3.7,0,6.7-3,6.7-6.7v-9.3h24.9 M414.3,248.8h-96v-20h31.5c2.4,0,4.4-2,4.4-4.4v-10.1c0-3.1,2.6-5.7,5.7-5.7h12.8
					c3.1,0,5.7,2.6,5.7,5.7v10.1c0,2.4,2,4.4,4.4,4.4h31.5V248.8z"/>
			</g>
		</g>
	</g>
</g>
</svg>
