<?xml version="1.0" encoding="utf-8"?>
<!-- Generator: Adobe Illustrator 26.5.0, SVG Export Plug-In . SVG Version: 6.00 Build 0)  -->
<svg version="1.1" xmlns="http://www.w3.org/2000/svg" xmlns:xlink="http://www.w3.org/1999/xlink" x="0px" y="0px"
	 viewBox="0 0 512 512" style="enable-background:new 0 0 512 512;" xml:space="preserve">
<style type="text/css">
	.st0{fill:#4CADE9;}
	.st1{fill:#DA4B7F;}
	.st2{fill:#F2F2F2;}
</style>
<g id="Layer_2">
	<g>
		<path class="st0" d="M42.1,300.3c19.7,26,54,36,84.5,25c38.5-13.9,58.6-56.5,44.5-95.1l172.1-93.7c14.1,18.5,36,29.4,59.2,29.4
			c8.5,0,17-1.5,25-4.2c38.7-13.9,58.7-56.4,44.8-95.1c-13.9-38.7-56.4-58.7-95.1-44.8c-38.7,13.9-58.7,56.4-44.8,95.1l-171.9,93.9
			c-19.7-26-54-36-84.5-25c-38.5,13.9-58.4,56.5-44.5,95.1 M101.4,307.4c-28.7,0-51.9-23.1-51.9-51.8s23.1-51.9,51.8-51.9
			c28.7,0,51.8,23.3,51.9,51.8C153.1,284.2,130,307.4,101.4,307.4z M402.3,143.3c-28.5,0.2-51.9-22.9-51.9-51.6
			c0-28.7,23.1-51.9,51.8-51.9c28.7,0,51.9,23.1,51.9,51.8C454.1,120,431,143.3,402.3,143.3z"/>
	</g>
	<g id="Layer_1">
		<g>
			<path class="st0" d="M31,230.5c-14.1,38.5,5.9,81.1,44.5,95.1c30.6,11,64.8,1,84.5-25l171.9,94c-14.1,38.7,5.9,81.5,44.6,95.6
				s81.5-5.9,95.6-44.6s-5.9-81.5-44.6-95.6c-30.7-11.2-65-1-84.9,24.8l-171.9-93.7c13.9-38.5-5.9-81.1-44.5-95.1
				c-30.6-11-64.8-1-84.5,25 M100.8,307.7c-28.7,0-51.8-23.3-51.8-51.9c0.2-28.5,23.3-51.8,51.9-51.8c28.7,0,51.8,23.3,51.8,51.9
				C152.7,284.6,129.4,307.7,100.8,307.7z M401.7,471.8c-28.7,0-51.8-23.3-51.8-51.9c0.2-28.7,23.4-51.8,51.9-51.8
				c28.7,0,51.8,23.3,51.8,51.9C453.6,448.8,430.4,471.8,401.7,471.8z"/>
		</g>
	</g>
</g>
<g id="Layer_3">
	<g>
		<path class="st1" d="M345.2,113.5"/>
		<path class="st2" d="M171.2,230.2l172.1-93.7l-10.9-19.7l-171.9,93.9"/>
	</g>
	<g>
		<path class="st1" d="M141.8,210.9"/>
		<path class="st1" d="M347.2,385.6"/>
		<path class="st2" d="M342.7,374.8l-171.9-93.7L160,300.6l171.9,94"/>
	</g>
</g>
</svg>
