<?xml version="1.0" encoding="utf-8"?>
<!-- Generator: Adobe Illustrator 26.5.0, SVG Export Plug-In . SVG Version: 6.00 Build 0)  -->
<svg version="1.1" xmlns="http://www.w3.org/2000/svg" xmlns:xlink="http://www.w3.org/1999/xlink" x="0px" y="0px"
	 viewBox="0 0 512 512" style="enable-background:new 0 0 512 512;" xml:space="preserve">
<style type="text/css">
	.st0{fill:#F2F2F2;}
	.st1{fill:#4CADE9;}
</style>
<g id="Layer_1">
	<path class="st0" d="M250,180c5.5,0,10-4.5,10-10s-4.5-10-10-10s-10,4.5-10,10S244.5,180,250,180z"/>
	<path class="st0" d="M250,220c5.5,0,10-4.5,10-10s-4.5-10-10-10s-10,4.5-10,10S244.5,220,250,220z"/>
	<path class="st0" d="M509.1,102.9l-100-100C407.3,1.2,404.7,0,402,0H150c-16.5,0-30,13.5-30,30v30.5c-3.3-0.3-6.7-0.5-10-0.5
		C49.3,60,0,109.3,0,170s49.3,110,110,110c3.3,0,6.7-0.2,10-0.5V482c0,16.5,13.5,30,30,30h332c16.5,0,30-13.5,30-30V110
		C512,107.3,510.9,104.7,509.1,102.9z M412,34.1l65.9,65.9H412V34.1z M120,80.6c42.2,4.7,74.8,38.3,79.4,79.4H120V80.6z M20,170
		c0-46.2,35.1-84.4,80-89.4V170c0,5.5,4.5,10,10,10h89.4c-5,44.7-42.9,80-89.4,80C60.4,260,20,219.6,20,170z M482,492H150
		c-5.5,0-10-4.5-10-10V275.8c46.8-13.2,80-56.5,80-105.8s-33.2-92.6-80-105.8V30c0-5.5,4.5-10,10-10h242v90c0,5.5,4.5,10,10,10h90
		v362C492,487.5,487.5,492,482,492z"/>
	<path class="st0" d="M256,80h106c5.5,0,10-4.5,10-10s-4.5-10-10-10H256c-5.5,0-10,4.5-10,10S250.5,80,256,80z"/>
	<path class="st0" d="M256,120h106c5.5,0,10-4.5,10-10s-4.5-10-10-10H256c-5.5,0-10,4.5-10,10S250.5,120,256,120z"/>
	<path class="st0" d="M110,220c-27.6,0-50-22.4-50-50c0-5.5-4.5-10-10-10s-10,4.5-10,10c0,38.6,31.4,70,70,70c5.5,0,10-4.5,10-10
		S115.5,220,110,220z"/>
	<path class="st1" d="M439,266c-16.5,0-30,13.5-30,30c0,6.2,1.9,12,5.1,16.8l-69.4,74.5c-2.8-0.8-5.7-1.3-8.7-1.3
		c-4.2,0-8.3,0.9-12.1,2.5l-31.3-38.8c2.2-4.2,3.3-8.9,3.3-13.7c0-16.5-13.5-30-30-30s-30,13.5-30,30c0,4.7,1.1,9.2,3.1,13.2
		l-36.5,39.5c-3.9-1.8-8.2-2.8-12.6-2.8c-16.5,0-30,13.5-30,30s13.5,30,30,30s30-13.5,30-30c0-4.7-1.1-9.2-3.1-13.2l36.5-39.5
		c3.9,1.8,8.2,2.8,12.6,2.8c4.2,0,8.3-0.9,12.1-2.5l31.3,38.8c-2.2,4.2-3.3,8.9-3.3,13.7c0,16.5,13.5,30,30,30s30-13.5,30-30
		c0-6.2-1.9-12-5.1-16.8l69.4-74.5c2.8,0.8,5.7,1.3,8.7,1.3c16.5,0,30-13.5,30-30S455.5,266,439,266z M190,426c-5.5,0-10-4.5-10-10
		s4.5-10,10-10c5.5,0,10,4.5,10,10C200,421.5,195.5,426,190,426z M256,336c0-5.5,4.5-10,10-10s10,4.5,10,10c0,5.5-4.5,10-10,10
		S256,341.5,256,336z M336,426c-5.5,0-10-4.5-10-10c0-5.5,4.5-10,10-10c5.5,0,10,4.5,10,10S341.5,426,336,426z M439,306
		c-5.5,0-10-4.5-10-10s4.5-10,10-10s10,4.5,10,10S444.5,306,439,306z"/>
	<path class="st0" d="M280,170c0,5.5,4.5,10,10,10h152c5.5,0,10-4.5,10-10s-4.5-10-10-10H290C284.5,160,280,164.5,280,170z"/>
	<path class="st0" d="M442,200H290c-5.5,0-10,4.5-10,10s4.5,10,10,10h152c5.5,0,10-4.5,10-10S447.5,200,442,200z"/>
</g>
<g id="Layer_2">
	<path class="st1" d="M120,279.6V482c0,16.5,13.5,30,30,30h332c16.5,0,30-13.5,30-30V110c0-2.7-1.1-5.3-2.9-7.1L409.1,3
		C407.3,1.2,404.7,0,402,0H150c-16.5,0-30,13.5-30,30v30.5l20,3.7V30c0-5.5,4.5-10,10-10h242v90c0,5.5,4.5,10,10,10h90v362
		c0,5.5-4.5,10-10,10H150c-5.5,0-10-4.5-10-10V275.9 M412,100V34.2l65.9,65.9H412z"/>
	<path class="st1" d="M439,266c-16.5,0-30,13.5-30,30c0,6.2,1.9,12,5.1,16.8l-69.4,74.5c-2.8-0.8-5.7-1.3-8.7-1.3
		c-4.2,0-8.3,0.9-12.1,2.5l-31.3-38.8c2.2-4.2,3.3-8.9,3.3-13.7c0-16.5-13.5-30-30-30s-30,13.5-30,30c0,4.7,1.1,9.2,3.1,13.2
		l-36.5,39.5c-3.9-1.8-8.2-2.8-12.6-2.8c-16.5,0-30,13.5-30,30s13.5,30,30,30s30-13.5,30-30c0-4.7-1.1-9.2-3.1-13.2l36.5-39.5
		c3.9,1.8,8.2,2.8,12.6,2.8c4.2,0,8.3-0.9,12.1-2.5l31.3,38.8c-2.2,4.2-3.3,8.9-3.3,13.7c0,16.5,13.5,30,30,30s30-13.5,30-30
		c0-6.2-1.9-12-5.1-16.8l69.4-74.5c2.8,0.8,5.7,1.3,8.7,1.3c16.5,0,30-13.5,30-30S455.5,266,439,266z M190,426c-5.5,0-10-4.5-10-10
		s4.5-10,10-10c5.5,0,10,4.5,10,10C200,421.6,195.5,426,190,426z M256,336c0-5.5,4.5-10,10-10s10,4.5,10,10c0,5.5-4.5,10-10,10
		S256,341.6,256,336z M336,426c-5.5,0-10-4.5-10-10c0-5.5,4.5-10,10-10c5.5,0,10,4.5,10,10S341.5,426,336,426z M439,306
		c-5.5,0-10-4.5-10-10s4.5-10,10-10s10,4.5,10,10S444.5,306,439,306z"/>
</g>
</svg>
