<?xml version="1.0" encoding="utf-8"?>
<!-- Generator: Adobe Illustrator 26.5.0, SVG Export Plug-In . SVG Version: 6.00 Build 0)  -->
<svg version="1.1" xmlns="http://www.w3.org/2000/svg" xmlns:xlink="http://www.w3.org/1999/xlink" x="0px" y="0px"
	 viewBox="0 0 512 512" style="enable-background:new 0 0 512 512;" xml:space="preserve">
<style type="text/css">
	.st0{fill:#F2F2F2;}
	.st1{fill:#429ECC;}
</style>
<g id="Capa_1">
	<g>
		<g>
			<path d="M256,40c-5.5,0-10,4.5-10,10s4.5,10,10,10c5.5,0,10-4.5,10-10S261.5,40,256,40z"/>
		</g>
	</g>
	<g>
		<g>
			<path class="st0" d="M136,172c-5.5,0-10,4.5-10,10s4.5,10,10,10s10-4.5,10-10S141.5,172,136,172z"/>
		</g>
	</g>
	<g>
		<g>
			<path class="st0" d="M136,232c-5.5,0-10,4.5-10,10s4.5,10,10,10s10-4.5,10-10S141.5,232,136,232z"/>
		</g>
	</g>
	<g>
		<g>
			<path class="st0" d="M136,292c-5.5,0-10,4.5-10,10s4.5,10,10,10s10-4.5,10-10S141.5,292,136,292z"/>
		</g>
	</g>
	<g>
		<g>
			<path class="st0" d="M336.2,183.1c0.2-3.6,0.4-7.4,0.9-11.1H176c-5.5,0-10,4.5-10,10c0,5.5,4.5,10,10,10h159.8
				C336,189,336.1,186.1,336.2,183.1z"/>
		</g>
	</g>
	<g>
		<g>
			<path class="st0" d="M336.1,250c0.7-6,1.4-12,2.4-18H176c-5.5,0-10,4.5-10,10c0,5.5,4.5,10,10,10h159.9
				C336,251.3,336.1,250.7,336.1,250z"/>
		</g>
	</g>
	<g>
		<g>
			<path class="st0" d="M330.9,310c2.8-2.8,6.1-5.2,9.4-7.5c0.4-0.3,0.9-0.6,1.3-0.9c-4.5-1.6-7.8-5.3-9.4-9.7H176
				c-5.5,0-10,4.5-10,10c0,5.5,4.5,10,10,10h153.3C329.8,311.3,330.3,310.6,330.9,310z"/>
		</g>
	</g>
	<g>
		<g>
			<path class="st1" d="M360.6,496.4c-1-1.4-1.9-2.9-2.8-4.4H96c-5.5,0-10-4.5-10-10V90c0-5.5,4.5-10,10-10h70v10
				c0,5.5,4.5,10,10,10h160c5.5,0,10-4.5,10-10V80h70c5.5,0,10,4.5,10,10v218.3c6.6-1.9,13.3-3.2,20-2.9V90c0-16.5-13.5-30-30-30
				h-71.7c-4.1-11.6-15.2-20-28.3-20h-11c-4.6-22.8-24.8-40-49-40s-44.3,17.2-49,40h-11c-13,0-24.2,8.4-28.3,20H96
				c-16.5,0-30,13.5-30,30v392c0,16.5,13.5,30,30,30h280.3C370.1,508.1,365,502.7,360.6,496.4z M186,70c0-5.5,4.5-10,10-10h20
				c5.5,0,10-4.5,10-10c0-16.5,13.5-30,30-30s30,13.5,30,30c0,5.5,4.5,10,10,10h20c5.5,0,10,4.5,10,10v10H186V70z"/>
			<path class="st0" d="M320.1,360.7c-0.1-3.2,0.8-6.1,2.5-8.7H176c-5.5,0-10,4.5-10,10c0,5.5,4.5,9.9,10,9.9h148.7
				C322,368.9,320.3,365,320.1,360.7z"/>
			<path class="st0" d="M316.8,424.3c-0.1-3.1,0.8-6,2.4-8.6c-0.3-1.2-0.6-2.5-0.8-3.7H176c-5.5,0-10,4.5-10,10c0,5.5,4.5,10,10,10
				h142.9C317.7,429.7,316.9,427.1,316.8,424.3z"/>
		</g>
	</g>
</g>
<g id="Layer_2">
	<g>
		<g>
			<path class="st0" d="M246,50c0,5.5,4.5,10,10,10s10-4.5,10-10s-4.5-10-10-10S246,44.5,246,50z"/>
		</g>
	</g>
	<g>
		<g>
			<path class="st0" d="M366,182c0,5.5,4.5,10,10,10c5.5,0,10-4.5,10-10s-4.5-10-10-10C370.5,172,366,176.5,366,182z"/>
		</g>
	</g>
	<g>
		<g>
			<path class="st0" d="M366,242c0,5.5,4.5,10,10,10c5.5,0,10-4.5,10-10s-4.5-10-10-10C370.5,232,366,236.5,366,242z"/>
		</g>
	</g>
	<g>
		<g>
			<path class="st0" d="M366,302c0,5.5,4.5,10,10,10c5.5,0,10-4.5,10-10s-4.5-10-10-10C370.5,292,366,296.5,366,302z"/>
		</g>
	</g>
	<g>
		<g>
			<path class="st0" d="M366,362c0,5.5,4.5,10,10,10c5.5,0,10-4.5,10-10s-4.5-10-10-10C370.5,352,366,356.5,366,362z"/>
		</g>
	</g>
	<g>
		<g>
			<path class="st0" d="M366,422c0,5.5,4.5,10,10,10c5.5,0,10-4.5,10-10s-4.5-10-10-10C370.5,412,366,416.5,366,422z"/>
		</g>
	</g>
	<g>
		<g>
			<path class="st0" d="M126,182c0,5.5,4.5,10,10,10h200c5.5,0,10-4.5,10-10s-4.5-10-10-10H136C130.5,172,126,176.5,126,182z"/>
		</g>
	</g>
	<g>
		<g>
			<path class="st0" d="M126,242c0,5.5,4.5,10,10,10h200c5.5,0,10-4.5,10-10s-4.5-10-10-10H136C130.5,232,126,236.5,126,242z"/>
		</g>
	</g>
	<g>
		<g>
			<path class="st0" d="M126,302c0,5.5,4.5,10,10,10h200c5.5,0,10-4.5,10-10s-4.5-10-10-10H136C130.5,292,126,296.5,126,302z"/>
		</g>
	</g>
	<g>
		<g>
			<path class="st0" d="M320.1,360.7c-0.1-3.1,0.8-6.1,2.5-8.7H172.3c3.5,6.1,5.8,13,7.8,19.9h144.6
				C322,368.9,320.3,365,320.1,360.7z"/>
			<path class="st0" d="M318.9,432c-1.2-2.3-2-4.9-2.1-7.7c-0.2-4.8,2.1-9.2,5.7-12.3H188.2c0.5,6.6,0,13.4-0.9,20H318.9z"/>
			<path class="st1" d="M416,60h-71.7C340.1,48.4,329,40,316,40h-11c-4.6-22.8-24.8-40-49-40s-44.4,17.2-49,40h-11
				c-13,0-24.2,8.4-28.3,20H96c-16.5,0-30,13.5-30,30v217c0.5,0,1.1,0,1.6,0c6-2.4,12.1-3.9,18.4-4.4V90c0-5.5,4.5-10,10-10h70v10
				c0,5.5,4.5,10,10,10h160c5.5,0,10-4.5,10-10V80h70c5.5,0,10,4.5,10,10v392c0,5.5-4.5,10-10,10H157.8c-1.7,1.9-3.4,3.8-5.3,5.6
				c-7,6.5-15.8,11.2-25.4,14.4H416c16.5,0,30-13.5,30-30V90C446,73.5,432.5,60,416,60z M326,80H186V70c0-5.5,4.5-10,10-10h20
				c5.5,0,10-4.5,10-10c0-16.5,13.5-30,30-30s30,13.5,30,30c0,5.5,4.5,10,10,10h20c5.5,0,10,4.5,10,10V80z"/>
		</g>
	</g>
</g>
<g id="Layer_3">
	<g>
		<g>
			<path class="st0" d="M125.9,362c0,5.5,4.5,10,10,10h200c5.5,0,10-4.5,10-10s-4.5-10-10-10h-200C130.4,352,125.9,356.5,125.9,362z
				"/>
		</g>
	</g>
	<g>
		<g>
			<path class="st0" d="M125.9,422c0,5.5,4.5,10,10,10h200c5.5,0,10-4.5,10-10s-4.5-10-10-10h-200C130.4,412,125.9,416.5,125.9,422z
				"/>
		</g>
	</g>
</g>
</svg>
