<?xml version="1.0" encoding="utf-8"?>
<!-- Generator: Adobe Illustrator 26.5.0, SVG Export Plug-In . SVG Version: 6.00 Build 0)  -->
<svg version="1.1" xmlns="http://www.w3.org/2000/svg" xmlns:xlink="http://www.w3.org/1999/xlink" x="0px" y="0px"
	 viewBox="0 0 512 512" style="enable-background:new 0 0 512 512;" xml:space="preserve">
<style type="text/css">
	.st0{fill:#4CADE9;}
	.st1{font-family:'MuseoSans-900';}
	.st2{font-size:102.5283px;}
	.st3{fill:#F2F2F2;}
</style>
<g id="Layer_2">
	<text transform="matrix(1 0 0 1 51.5509 382.9678)" class="st0 st1 st2">SUBMIT</text>
</g>
<g id="Layer_1">
	<g>
		<g>
			<path class="st3" d="M223.3,38.3h-97c-4.1,0-7.5,3.4-7.5,7.5v139.4c0,4.1,3.4,7.5,7.5,7.5h97c4.1,0,7.5-3.4,7.5-7.5V45.8
				C230.8,41.6,227.5,38.3,223.3,38.3z M215.8,177.7h-82V53.3h82V177.7z"/>
			<path class="st3" d="M259.7,87.6H385c4.1,0,7.5-3.4,7.5-7.5V45.8c0-4.1-3.4-7.5-7.5-7.5H259.7c-4.1,0-7.5,3.4-7.5,7.5v34.3
				C252.2,84.2,255.6,87.6,259.7,87.6z M267.2,53.3h110.3v19.3H267.2V53.3z"/>
			<path class="st3" d="M259.7,124H385c4.1,0,7.5-3.4,7.5-7.5s-3.4-7.5-7.5-7.5H259.7c-4.1,0-7.5,3.4-7.5,7.5S255.6,124,259.7,124z"
				/>
			<path class="st3" d="M259.7,156.3H385c4.1,0,7.5-3.4,7.5-7.5s-3.4-7.5-7.5-7.5H259.7c-4.1,0-7.5,3.4-7.5,7.5
				S255.6,156.3,259.7,156.3z"/>
			<path class="st3" d="M259.7,192.7H385c4.1,0,7.5-3.4,7.5-7.5s-3.4-7.5-7.5-7.5H259.7c-4.1,0-7.5,3.4-7.5,7.5
				S255.6,192.7,259.7,192.7z"/>
			<path class="st3" d="M191.6,221.5c0,4.1,3.4,7.5,7.5,7.5H385c4.1,0,7.5-3.4,7.5-7.5s-3.4-7.5-7.5-7.5H199.1
				C194.9,214,191.6,217.4,191.6,221.5z"/>
			<path class="st3" d="M126.4,229h36.4c4.1,0,7.5-3.4,7.5-7.5s-3.4-7.5-7.5-7.5h-36.4c-4.1,0-7.5,3.4-7.5,7.5S122.2,229,126.4,229z
				"/>
			<path class="st3" d="M361.3,384l14.2,40.6c0,0,0,0,0,0H110.1c-4.1,0-7.7,3.2-7.8,7.3c-0.1,4.2,3.3,7.7,7.5,7.7h271.1c0,0,0,0,0,0
				l23.6,67.3c1,2.8,3.5,4.7,6.4,5c0.2,0,0.5,0,0.7,0c2.6,0,5.1-1.4,6.5-3.7l33.1-56.7c0,0,0,0,0,0l20.3-11.8c0,0,0,0,0,0H484
				c15.2,0,27.5-12.2,27.7-27.4v0c0-0.1,0-0.2,0-0.4V276.6c0-15.3-12.4-27.7-27.7-27.7h-53c0,0,0,0,0,0V7.4c0-4.2-3.4-7.5-7.5-7.5
				H88c-4.2,0-7.5,3.4-7.5,7.5v73c0,4.1,3.2,7.7,7.3,7.8c4.2,0.1,7.7-3.3,7.7-7.5V14.9c0,0,0,0,0,0h320.3c0,0,0,0,0,0v233.9
				c0,0,0,0,0,0h-8.4c-4.1,0-7.7,3.2-7.8,7.3c-0.1,4.2,3.3,7.7,7.5,7.7h76.9c7,0,12.7,5.7,12.7,12.7v124.6c0,0,0,0,0,0L446,383.4
				l-65-22.8l-17.1-6c-1.5-0.5-3.2-0.5-4.6-0.1c0,0,0,0,0,0C359.2,354.6,352.8,359.3,361.3,384z M441.9,439.5
				c-1.1,0.7-2,1.6-2.7,2.7l-25.9,44.4c0,0-0.1,0-0.1,0L373.7,374c0,0,0-0.1,0,0l112.5,39.5c0,0,0,0,0,0.1L441.9,439.5z"/>
			<line x1="432.4" y1="378.6" x2="396" y2="365.8"/>
			<path class="st3" d="M74.7,424.6H27.4c-7,0-12.7-5.7-12.7-12.7V276.5c0-7,5.7-12.7,12.7-12.7h344.6c4.1,0,7.5-3.4,7.5-7.5
				c0-4.1-3.4-7.5-7.5-7.5H95.5v-133c0-4.1-3.4-7.5-7.5-7.5s-7.5,3.4-7.5,7.5v133H27.4c-15.3,0-27.7,12.4-27.7,27.7v135.4
				c0,15.3,12.4,27.7,27.7,27.7h47.4c4.1,0,7.5-3.4,7.5-7.5S78.9,424.6,74.7,424.6L74.7,424.6z"/>
		</g>
	</g>
</g>
<g id="Layer_3">
	<g>
		<g>
			<path class="st3" d="M223.2,38.1h-97c-4.1,0-7.5,3.4-7.5,7.5V185c0,4.1,3.4,7.5,7.5,7.5h97c4.1,0,7.5-3.4,7.5-7.5V45.6
				C230.7,41.5,227.3,38.1,223.2,38.1z M215.7,177.5h-82V53.1h82V177.5z"/>
			<path class="st3" d="M259.5,87.4h125.3c4.1,0,7.5-3.4,7.5-7.5V45.6c0-4.1-3.4-7.5-7.5-7.5H259.5c-4.1,0-7.5,3.4-7.5,7.5v34.3
				C252,84.1,255.4,87.4,259.5,87.4z M267,53.1h110.3v19.3H267V53.1z"/>
			<path class="st3" d="M259.5,123.8h125.3c4.1,0,7.5-3.4,7.5-7.5s-3.4-7.5-7.5-7.5H259.5c-4.1,0-7.5,3.4-7.5,7.5
				S255.4,123.8,259.5,123.8z"/>
			<path class="st3" d="M259.5,156.1h125.3c4.1,0,7.5-3.4,7.5-7.5s-3.4-7.5-7.5-7.5H259.5c-4.1,0-7.5,3.4-7.5,7.5
				S255.4,156.1,259.5,156.1z"/>
			<path class="st3" d="M259.5,192.5h125.3c4.1,0,7.5-3.4,7.5-7.5s-3.4-7.5-7.5-7.5H259.5c-4.1,0-7.5,3.4-7.5,7.5
				S255.4,192.5,259.5,192.5z"/>
			<path class="st3" d="M191.4,221.4c0,4.1,3.4,7.5,7.5,7.5h185.9c4.1,0,7.5-3.4,7.5-7.5s-3.4-7.5-7.5-7.5H198.9
				C194.8,213.9,191.4,217.2,191.4,221.4z"/>
			<path class="st3" d="M126.2,228.9h36.4c4.1,0,7.5-3.4,7.5-7.5s-3.4-7.5-7.5-7.5h-36.4c-4.1,0-7.5,3.4-7.5,7.5
				S122,228.9,126.2,228.9z"/>
			<path class="st0" d="M496.5,401C496.5,401,496.5,401,496.5,401l-50.7-17.8l-65-22.8l-17.1-6c-1.5-0.5-3.2-0.5-4.6-0.1
				c0,0,0,0,0,0c-0.1,0.1-6.5,4.8,2.1,29.5l14.2,40.6c0,0,0,0,0,0l5.3,15c0,0,0,0,0,0l23.6,67.3c1,2.8,3.5,4.7,6.4,5
				c0.2,0,0.5,0,0.7,0c2.6,0,5.1-1.4,6.5-3.7l33.1-56.7c0,0,0,0,0,0l20.3-11.8c0,0,0,0,0,0 M441.8,439.3c-1.1,0.7-2,1.6-2.7,2.7
				l-25.9,44.4c0,0-0.1,0-0.1,0l-39.5-112.5c0,0,0-0.1,0,0l112.5,39.5c0,0,0,0,0,0.1L441.8,439.3z"/>
			<line x1="432.2" y1="378.5" x2="395.8" y2="365.7"/>
			<path class="st3" d="M74.6,424.4H27.2c-7,0-12.7-5.7-12.7-12.7V276.4c0-7,5.7-12.7,12.7-12.7h344.6c4.1,0,7.5-3.4,7.5-7.5
				c0-4.1-3.4-7.5-7.5-7.5H95.3v-133c0-4.1-3.4-7.5-7.5-7.5s-7.5,3.4-7.5,7.5v133H27.2c-15.3,0-27.7,12.4-27.7,27.7v135.4
				c0,15.3,12.4,27.7,27.7,27.7h47.4c4.1,0,7.5-3.4,7.5-7.5S78.7,424.4,74.6,424.4L74.6,424.4z"/>
		</g>
	</g>
</g>
<g id="Layer_4">
	<g>
		<g>
			<path class="st0" d="M511.4,411c-0.3-2.9-2.2-5.4-5-6.4L439.2,381c0,0,0,0,0,0l-15-5.3c0,0,0,0,0,0l-29.7-10.4
				c0,0.4,0.1,0.8,0.1,1.1c0.2,5-2.3,9.6-6.1,12.7l97.7,34.3c0,0,0,0,0,0.1l-44.4,25.9c-1.1,0.7-2,1.6-2.7,2.7l-2,3.5
				c5.3,1.4,9.4,5.4,11.3,10.5l2.7-4.7c0,0,0,0,0,0l56.7-33.1c2.3-1.4,3.7-3.8,3.7-6.5C511.5,411.4,511.5,411.2,511.4,411z"/>
		</g>
	</g>
</g>
</svg>
